<svg xmlns="http://www.w3.org/2000/svg" xmlns:xlink="http://www.w3.org/1999/xlink" viewBox="0 0 1382 1222"><defs><style>.cls-1,.cls-23,.cls-27,.cls-9{fill:none;}.cls-2{isolation:isolate;}.cls-3{fill:#383838;opacity:0.37;mix-blend-mode:color-burn;}.cls-17,.cls-4{fill:#d8c3ed;}.cls-5{fill:#231435;}.cls-6{fill:#91b4ee;}.cls-7{fill:#dfeafd;}.cls-8{fill:#4771c4;}.cls-9{stroke:#231435;stroke-linecap:round;stroke-linejoin:round;}.cls-23,.cls-27,.cls-9{stroke-width:0.75px;}.cls-10{clip-path:url(#clip-path);}.cls-11{fill:#d67272;}.cls-12{fill:#ec9291;}.cls-13{fill:#fdf2eb;}.cls-14{fill:#fff;}.cls-15{clip-path:url(#clip-path-2);}.cls-16{fill:#fdf0d5;}.cls-17{opacity:0.42;}.cls-18{fill:#d87805;}.cls-19{fill:#fdd16a;}.cls-20{fill:#f99d25;}.cls-21{fill:#fce2ad;}.cls-22{fill:#fd506d;}.cls-23{stroke:#e7b9bb;}.cls-23,.cls-27{stroke-miterlimit:10;}.cls-24{fill:#8561af;}.cls-25{fill:#ffc5d3;}.cls-26{fill:#4d3661;}.cls-27{stroke:#fff;}</style><clipPath id="clip-path"><polygon class="cls-1" points="514.5 379.04 519.53 397.34 552.91 405.98 566.18 405.98 599.55 397.34 604.58 379.04 599.35 370 594.83 341.05 579.45 316.61 544.76 316.61 520.94 347.83 514.5 379.04"/></clipPath><clipPath id="clip-path-2"><circle class="cls-1" cx="708.75" cy="808.69" r="118.8"/></clipPath></defs><title>Artboard 4</title><g class="cls-2"><g id="Layer_1" data-name="Layer 1"><ellipse class="cls-3" cx="687.43" cy="1134.78" rx="624.45" ry="48.24"/><rect class="cls-4" x="583.63" y="254.77" width="102.87" height="27.92" rx="1.26"/><rect class="cls-4" x="700.36" y="254.77" width="102.87" height="27.92" rx="1.26"/><rect class="cls-4" x="644.55" y="295.76" width="102.87" height="27.92" rx="1.26"/><rect class="cls-4" x="1126.4" y="554.46" width="102.87" height="27.92" rx="1.26"/><rect class="cls-4" x="1243.13" y="554.46" width="102.87" height="27.92" rx="1.26"/><rect class="cls-4" x="1187.33" y="595.45" width="102.87" height="27.92" rx="1.26"/><rect class="cls-4" x="169.49" y="657.61" width="102.87" height="27.92" rx="1.26" transform="translate(441.84 1343.13) rotate(180)"/><rect class="cls-4" x="45.07" y="657.61" width="102.87" height="27.92" rx="1.26" transform="translate(193 1343.13) rotate(180)"/><rect class="cls-4" x="100.88" y="616.62" width="102.87" height="27.92" rx="1.26" transform="translate(304.62 1261.16) rotate(180)"/><path class="cls-5" d="M382.67,354.52A2,2,0,0,0,384,354a16.31,16.31,0,0,0,4.59-15.5c-1.45-6.82-6.54-12.14-14-14.58a24.55,24.55,0,0,0-8-1.26,2,2,0,0,0,0,3.94h.42a20.17,20.17,0,0,1,6.31,1.06c6.05,2,10.18,6.24,11.33,11.66a12.31,12.31,0,0,1-3.38,11.76,2,2,0,0,0-.13,2.78A1.94,1.94,0,0,0,382.67,354.52Z"/><path class="cls-5" d="M578.66,353.86a2,2,0,0,0,1.32-.5,16.34,16.34,0,0,0,4.59-15.51c-1.45-6.82-6.54-12.14-14-14.58a25.14,25.14,0,0,0-6-1.2,2,2,0,1,0-.28,3.93,21.42,21.42,0,0,1,5,1c6,2,10.18,6.24,11.33,11.66a12.31,12.31,0,0,1-3.38,11.76,2,2,0,0,0,1.33,3.43Z"/><path class="cls-5" d="M720.29,1029.94a1.94,1.94,0,0,0,1.94-1.94V331a1.93,1.93,0,0,0-1.94-1.93H175.56a1.93,1.93,0,0,0-1.94,1.93v787.5a1.94,1.94,0,0,0,3.88,0V333H718.35V1028A1.94,1.94,0,0,0,720.29,1029.94Z"/><path class="cls-6" d="M559.54,715.64c51.57.32,114.09-3.35,120-5.66,7.24-2.81,0-115.4,0-115.4L665.63,470.73l-39.74-70-52.48-8.69H545.67l-52.48,8.69-39.74,70L439.51,594.58s-7.24,112.59,0,115.4C445.45,712.29,508,716,559.54,715.64Z"/><path class="cls-7" d="M721,639.21s9.65,32.17,7.24,35.79-28.35,13.67-53.31,9.36c-3.77-.65-9.29-35.52-9.29-35.52l31.49-12Z"/><path class="cls-7" d="M398.09,639.21s-9.65,32.17-7.24,35.79,28.35,13.67,53.31,9.36c3.77-.65,9.29-35.52,9.29-35.52L422,636.8Z"/><path class="cls-7" d="M559.54,382.09c18.6.27,33.63-6.26,45-3l-5,18.3L566.17,406H552.91l-33.38-8.65-5-18.3C525.91,375.83,540.94,382.36,559.54,382.09Z"/><circle class="cls-8" cx="679.57" cy="666.15" r="6.03"/><path class="cls-8" d="M445.54,666.15a6,6,0,1,0-6,6A6,6,0,0,0,445.54,666.15Z"/><path class="cls-9" d="M552,433.72c.74,17.56-.21,35.42-.36,53s-.22,35.16-.31,52.74c-.17,35.46-.26,70.91-.57,106.37Q550.55,675.9,550,706"/><path class="cls-8" d="M557.23,444.19a4.43,4.43,0,1,1,4.43,4.42A4.43,4.43,0,0,1,557.23,444.19Z"/><path class="cls-8" d="M557.23,472.83a4.43,4.43,0,1,1,4.43,4.42A4.43,4.43,0,0,1,557.23,472.83Z"/><path class="cls-8" d="M557.23,501.46a4.43,4.43,0,1,1,4.43,4.43A4.42,4.42,0,0,1,557.23,501.46Z"/><path class="cls-8" d="M557.23,530.1a4.43,4.43,0,1,1,4.43,4.43A4.42,4.42,0,0,1,557.23,530.1Z"/><path class="cls-8" d="M557.23,558.74a4.43,4.43,0,1,1,4.43,4.43A4.42,4.42,0,0,1,557.23,558.74Z"/><path class="cls-8" d="M557.23,587.38a4.43,4.43,0,1,1,4.43,4.43A4.42,4.42,0,0,1,557.23,587.38Z"/><path class="cls-8" d="M557.23,616a4.43,4.43,0,1,1,4.43,4.42A4.42,4.42,0,0,1,557.23,616Z"/><path class="cls-8" d="M557.23,644.66a4.43,4.43,0,1,1,4.43,4.42A4.42,4.42,0,0,1,557.23,644.66Z"/><path class="cls-8" d="M557.23,673.3a4.43,4.43,0,1,1,4.43,4.42A4.42,4.42,0,0,1,557.23,673.3Z"/><path class="cls-8" d="M557.23,701.94a4.43,4.43,0,1,1,4.43,4.42A4.42,4.42,0,0,1,557.23,701.94Z"/><path class="cls-6" d="M625.89,397.14s50.87,20.4,58.51,43.24S725.81,632.94,721,639.06s-38.2,13.47-53.48,9L634.94,488.12Z"/><path class="cls-6" d="M493.19,397.14s-50.87,20.4-58.51,43.24-41.41,192.56-36.59,198.68,38.2,13.47,53.48,9l32.57-159.92Z"/><g class="cls-10"><path class="cls-5" d="M476.2,412.8a3.87,3.87,0,0,1,.51-3c6.05-10.11,75.38-27,83.27-28.87a2,2,0,0,1,.92,0c7.88,1.9,77.22,18.76,83.27,28.87a3.87,3.87,0,0,1,.51,3c-2.8,10.58-83.4,12.83-84.27,12.84S479,423.38,476.2,412.8Zm3.77-1.11c3.11,5.05,55.47,9.64,80.44,10,25-.38,77.39-5,80.45-9.75-1.29-5.12-42.65-18-80.42-27.1C522.67,393.94,481.31,406.84,480,411.69Z"/><path class="cls-5" d="M560.32,384.81a2,2,0,0,0,1.95-1.76c.93-8.54-3-15.89-6.82-23-2.43-4.52-4.94-9.21-6-14-1.27-5.64-.09-11.09,3.22-14.94a15,15,0,0,1,12.73-5,2,2,0,0,0,2.11-1.82,2,2,0,0,0-1.83-2.11,19,19,0,0,0-16,6.37c-4.14,4.81-5.62,11.51-4.08,18.38,1.2,5.33,3.84,10.25,6.4,15,3.69,6.88,7.17,13.38,6.38,20.72a2,2,0,0,0,1.74,2.17Z"/></g><path class="cls-7" d="M604.58,379s-13.07,19.31-43.83,25.74c-2.13.44,7.41,28.32,10.25,28.15,30.16-1.81,55.29-27.55,54.89-32.17S611.21,380.05,604.58,379Z"/><path class="cls-7" d="M514.5,379s13.07,19.31,43.83,25.74c2.13.44-7.41,28.32-10.25,28.15-30.16-1.81-55.29-27.55-54.89-32.17S507.87,380.05,514.5,379Z"/><path class="cls-9" d="M604.58,379s-13.07,19.31-43.83,25.74"/><path class="cls-9" d="M514.5,379s13.07,19.31,43.83,25.74"/><path class="cls-5" d="M635.71,492.72c1.55,4.92,2.6,10,3.81,15s2.38,10,3.54,15.08q3.48,15.1,6.75,30.25,6.56,30.28,12.17,60.77Q665.15,631,668,648.17c.26,1.58-2.14,2.25-2.41.67q-5.16-30.55-11.17-61t-12.81-60.65q-1.92-8.49-3.9-17c-1.31-5.65-2.87-11.29-3.87-17A1,1,0,0,1,635.71,492.72Z"/><path class="cls-5" d="M483.37,492.72c-1.55,4.92-2.6,10-3.8,15s-2.39,10-3.55,15.08q-3.48,15.1-6.75,30.25-6.56,30.28-12.17,60.77Q453.94,631,451,648.17c-.26,1.58,2.14,2.25,2.41.67q5.16-30.55,11.17-61t12.81-60.65q1.92-8.49,3.9-17c1.31-5.65,2.87-11.29,3.88-17A1,1,0,0,0,483.37,492.72Z"/><path class="cls-11" d="M361,875.85h0c5.28.18,10.63.28,16,.33,55.37.59,112.12-4.56,112.12-4.56l-9.32-451.27c-21.12-13.37-53.08-20.29-78.53-23.86-22.72-3.17-40.25-3.67-40.25-3.67h0s-17.53.5-40.25,3.67c-25.45,3.57-57.41,10.49-78.53,23.86l-9.32,451.27s56.75,5.15,112.12,4.56c5.35,0,10.7-.15,16-.33Z"/><path class="cls-5" d="M268,422.34a4.23,4.23,0,0,1,.57-3.33c6.66-11.15,83.22-29.78,91.93-31.86a2.16,2.16,0,0,1,1,0c8.71,2.08,85.26,20.71,91.93,31.86a4.26,4.26,0,0,1,.56,3.33c-3.08,11.67-92.07,14.17-93,14.18S271.06,434,268,422.34Zm4.16-1.22c3.43,5.57,61.25,10.64,88.81,11.05,27.63-.41,85.44-5.48,88.82-10.76-1.43-5.65-47.1-19.89-88.79-29.91C319.28,401.52,273.61,415.76,272.13,421.12Z"/><path class="cls-5" d="M360.84,391.43A2.17,2.17,0,0,0,363,389.5c1-9.44-3.33-17.55-7.54-25.39-2.68-5-5.45-10.17-6.65-15.48-1.57-7,.27-13.67,4.91-17.89s11.27-5.31,18.23-3a2.17,2.17,0,1,0,1.35-4.13c-8.48-2.79-16.68-1.35-22.5,3.93s-8.15,13.54-6.23,22.06c1.33,5.89,4.24,11.33,7.06,16.59,4.08,7.59,7.92,14.76,7.05,22.86a2.17,2.17,0,0,0,1.92,2.39Z"/><path class="cls-12" d="M372.54,643.21s.48,178.59,4.41,233c.66,9,1.4,14.56,2.25,15.42,6,6,131.85,2.66,137.17-8.66s10-350.94-36.62-462.59c-8-5.09-17.62-9.24-27.83-12.63-16.65-5.52-34.92-9-50.7-11.23Z"/><path class="cls-12" d="M349.41,643.21s-.49,178.59-4.42,233c-.65,9-1.4,14.56-2.24,15.42-6,6-131.85,2.66-137.18-8.66s-10-350.94,36.62-462.59c8-5.09,17.63-9.24,27.83-12.63,16.65-5.52,34.93-9,50.7-11.23Z"/><path class="cls-13" d="M372.54,643.21c34.62-49.28,79.38-235.48,79.38-235.48h0c-16.65-5.52-34.92-9-50.7-11.23Z"/><path class="cls-13" d="M349.41,643.21C314.78,593.93,270,407.73,270,407.73h0c16.65-5.52,34.93-9,50.7-11.23Z"/><path class="cls-13" d="M349.41,643.21C314.78,593.93,270,407.73,270,407.73h0c16.65-5.52,34.93-9,50.7-11.23Z"/><path class="cls-9" d="M372.54,643.21c34.62-49.28,79.38-235.48,79.38-235.48"/><path class="cls-9" d="M349.41,643.21C314.78,593.93,270,407.73,270,407.73"/><path class="cls-12" d="M479.75,420.35c28,54.6,69.25,260.15,55.93,274.8s-74.29,12.65-83.76,7.32-16.13-175.13-16.13-175.13Z"/><path class="cls-12" d="M242.19,420.35c-28,54.6-69.25,260.15-55.93,274.8s74.3,12.65,83.76,7.32,16.13-175.13,16.13-175.13Z"/><path class="cls-9" d="M186.26,695.15c13.32,14.65,74.3,12.65,83.76,7.32s16.13-175.13,16.13-175.13"/><path class="cls-9" d="M193,649.25c13.31,14.65,74.29,12.65,83.76,7.33"/><path class="cls-13" d="M461.14,763.94c17.28-.21,34.59,0,34.59,0s3.55,51.72-3.11,54.16c-2.79,1-13.21,2.28-24.77,3.08q-3.35.24-6.71.24c-2.24,0-4.49-.08-6.72-.24-11.56-.8-22-2.06-24.77-3.08-6.65-2.44-3.1-54.16-3.1-54.16S443.85,763.73,461.14,763.94Z"/><path class="cls-13" d="M260.81,763.94c-17.29-.21-34.59,0-34.59,0s-3.56,51.72,3.1,54.16c2.79,1,13.21,2.28,24.77,3.08q3.34.24,6.72.24t6.71-.24c11.56-.8,22-2.06,24.77-3.08C299,815.68,295.4,764,295.4,764S278.09,763.73,260.81,763.94Z"/><circle class="cls-5" cx="462.34" cy="779.18" r="4.47"/><path class="cls-5" d="M389.48,686.78c1.28-.13,2.61,0,3.9-.06s2.51,0,3.76,0a52.75,52.75,0,0,1,7.64.34,1.06,1.06,0,0,1,0,2,54.33,54.33,0,0,1-7.64.56c-1.25,0-2.5.08-3.76.1s-2.62.15-3.9,0A1.5,1.5,0,0,1,389.48,686.78Z"/><path class="cls-5" d="M389.48,737.39c1.28-.13,2.61,0,3.9-.06l3.76,0a54.21,54.21,0,0,1,7.64.35c1,.15,1,1.84,0,2a54.33,54.33,0,0,1-7.64.56c-1.25,0-2.5.08-3.76.1s-2.62.15-3.9,0A1.5,1.5,0,0,1,389.48,737.39Z"/><path class="cls-5" d="M389.48,791.46a39,39,0,0,1,3.9-.07c1.26,0,2.51,0,3.76,0a55.75,55.75,0,0,1,7.64.34,1.06,1.06,0,0,1,0,2,54.34,54.34,0,0,1-7.64.57c-1.25,0-2.5.07-3.76.09s-2.62.15-3.9.06A1.5,1.5,0,0,1,389.48,791.46Z"/><path class="cls-5" d="M315.07,688.26a10.1,10.1,0,1,1,10.09,10.1A10.09,10.09,0,0,1,315.07,688.26Z"/><path class="cls-5" d="M315.07,738.87A10.1,10.1,0,1,1,325.16,749,10.09,10.09,0,0,1,315.07,738.87Z"/><path class="cls-5" d="M315.07,792.64a10.1,10.1,0,1,1,10.09,10.1A10.09,10.09,0,0,1,315.07,792.64Z"/><path class="cls-13" d="M320.24,684.69a1.19,1.19,0,0,1,.84-.83,1.82,1.82,0,0,1,1.21.16,2.63,2.63,0,0,1,.65.64c.31.35.63.7.95,1,.66.71,1.34,1.39,2,2.06s1.36,1.3,2.07,1.91a10.92,10.92,0,0,1,2.12,2.12,1.06,1.06,0,0,1-1.18,1.54,8.39,8.39,0,0,1-2.7-1.7c-.75-.6-1.48-1.23-2.2-1.88s-1.36-1.3-2-2c-.34-.35-.68-.71-1-1.08-.18-.2-.36-.4-.53-.62A1.58,1.58,0,0,1,320.24,684.69Z"/><path class="cls-13" d="M320.22,691.67c.62-.76,1.37-1.43,2-2.15s1.32-1.47,2-2.2c1.31-1.47,2.52-3,3.94-4.36a.94.94,0,0,1,1.47,1.13,29.51,29.51,0,0,1-3.42,5.1c-.61.78-1.24,1.54-1.88,2.29a24.23,24.23,0,0,1-2,2.26,1.49,1.49,0,0,1-2.08,0A1.5,1.5,0,0,1,320.22,691.67Z"/><path class="cls-13" d="M320.11,733.71a1.36,1.36,0,0,1,1.87,0q2.28,2.06,4.36,4.31c.68.74,1.33,1.52,2,2.3a16.62,16.62,0,0,1,1,1.36,2.1,2.1,0,0,1,.51,1.66.89.89,0,0,1-.83.63c-.59,0-1.11-.48-1.51-.88s-.67-.71-1-1.08c-.67-.75-1.36-1.48-2.05-2.21q-2.08-2.2-4.34-4.21A1.34,1.34,0,0,1,320.11,733.71Z"/><path class="cls-13" d="M320.39,741.53l1.1-1.07c.76-.77,1.51-1.55,2.23-2.35,1.43-1.57,2.76-3.22,4.18-4.8.75-.83,2,.23,1.49,1.16a29.81,29.81,0,0,1-3.72,5.47c-.67.81-1.37,1.6-2.09,2.37-.37.39-.75.78-1.13,1.16a2.6,2.6,0,0,1-1.86,1.09,1.28,1.28,0,0,1-1.27-1.26A2.54,2.54,0,0,1,320.39,741.53Z"/><path class="cls-13" d="M322.27,787.81a6.47,6.47,0,0,1,1.13,1.09l1,1.11c.66.72,1.3,1.45,1.94,2.17a44.11,44.11,0,0,1,3.74,4.57.93.93,0,0,1-.23,1.2,1,1,0,0,1-1.22-.08,23.42,23.42,0,0,1-2.11-1.88l-2-2.1c-.65-.68-1.31-1.36-1.95-2l-1-1a7.13,7.13,0,0,1-1.08-1.25C319.93,788.5,321.17,787.06,322.27,787.81Z"/><path class="cls-13" d="M320.81,795.13c.35-.46.7-.91,1.07-1.35.67-.8,1.37-1.59,2.09-2.35s1.41-1.49,2.18-2.15,1.72-1.34,2.61-1.95,1.9.74,1.16,1.5-1.38,1.5-2.08,2.25-1.39,1.42-2.06,2.17-1.3,1.51-1.92,2.3c-.26.33-.57.72-.82,1.06-.41.55-.77,1.17-1.48,1.33a1.21,1.21,0,0,1-1.51-1.14A2.47,2.47,0,0,1,320.81,795.13Z"/><path class="cls-5" d="M518.85,705.31c-9.57,3.12-20.21,4.1-30.23,4.43-9.58.32-20.19.26-29.53-2.19-6.77-1.78-10.1-6.79-11.52-13.4-2.17-10-2.85-20.58-4.15-30.76-5.77-45.1-10.13-90.2-8.57-135.71.06-1.78,2.82-1.79,2.77,0-1.29,40.09,2.54,80.3,7.38,120.06q1.83,15.1,3.87,30.18c1.05,7.89.5,22.13,9.59,25.66,8.23,3.2,19.28,2.71,28,2.62,10.75-.12,21-2.08,31.61-3.66a1.44,1.44,0,0,1,.77,2.77Z"/><path class="cls-5" d="M536.48,648.38c-13.92,6.36-29.55,9.75-44.64,11.91a212.3,212.3,0,0,1-46.38,1.76c-2.58-.2-2.64-4.21,0-4.08a236.54,236.54,0,0,0,46.15-1.65c15-2.14,29.27-6.38,43.87-10.3,1.37-.37,2.37,1.74,1,2.36Z"/><path class="cls-5" d="M264.07,684a4.56,4.56,0,1,0-4.56,4.56A4.56,4.56,0,0,0,264.07,684Z"/><path class="cls-5" d="M470.09,684a4.55,4.55,0,1,0-4.55,4.56A4.55,4.55,0,0,0,470.09,684Z"/><path class="cls-5" d="M493.75,771.45A114.46,114.46,0,0,1,478.56,784q-4.06,2.87-8.35,5.41c-2.32,1.39-4.83,2.83-7.62,2.87-5.91.09-11.59-5.44-16-8.73q-8.56-6.33-16.71-13.21c-1.74-1.47.77-4,2.49-2.5,4.91,4.14,9.93,8.13,15.1,11.92,2.19,1.6,4.39,3.16,6.61,4.7,2.46,1.71,5.36,4.26,8.54,4.18,2.93-.08,5.76-2.31,8.15-3.8q3.28-2,6.49-4.22c5.07-3.43,9.95-7.19,14.79-10.94,1.21-.93,2.88.58,1.73,1.73Z"/><circle class="cls-5" cx="259.6" cy="779.18" r="4.47"/><path class="cls-5" d="M229.91,769.72c4.84,3.75,9.73,7.51,14.8,10.94q3.21,2.18,6.49,4.22c2.38,1.49,5.22,3.72,8.14,3.8,3.18.08,6.08-2.47,8.55-4.18,2.22-1.54,4.42-3.1,6.6-4.7,5.18-3.79,10.2-7.78,15.1-11.92,1.73-1.45,4.23,1,2.5,2.5q-7.92,6.68-16.25,12.87c-4.55,3.37-10.43,9.16-16.5,9.07-5.49-.09-11.24-5-15.51-8a115.32,115.32,0,0,1-15.65-12.91c-1.14-1.15.53-2.66,1.73-1.73Z"/><path class="cls-13" d="M495.16,504.65a8.34,8.34,0,0,1,1.32,3.42c.27,1.12.5,2.25.72,3.38a21.7,21.7,0,0,1,.54,3.66c0,1.06.19,2.46-.4,3.4a.94.94,0,0,1-1.28.33c-1-.7-1.29-2-1.7-3a20,20,0,0,1-.8-3.36c-.21-1.14-.39-2.28-.57-3.42-.09-.64-.18-1.3-.23-1.94a4.68,4.68,0,0,1,.09-1.83,1.39,1.39,0,0,1,2.31-.61Z"/><path class="cls-13" d="M488.84,505.6c.51,1.87,1,3.74,1.52,5.61a14.67,14.67,0,0,1,.59,3c.06.9.29,2.1-.25,2.89a.88.88,0,0,1-1.18.31c-.84-.45-1.19-1.57-1.57-2.39a15.46,15.46,0,0,1-.91-2.92c-.43-1.89-.87-3.77-1.3-5.66a1.61,1.61,0,1,1,3.1-.86Z"/><path class="cls-13" d="M493.51,525.2c.41,1.21.87,2.41,1.22,3.65a9,9,0,0,1,.25.89c.08.43.11.89.17,1.33a2.24,2.24,0,0,1-.12,1.35,1.26,1.26,0,0,1-.81.78,1.3,1.3,0,0,1-1.12-.27,2,2,0,0,1-.71-1l-.15-.38c-.13-.3-.26-.61-.38-.92a8,8,0,0,1-.26-1c-.31-1.24-.51-2.52-.76-3.78a1.38,1.38,0,0,1,2.67-.73Z"/><path class="cls-13" d="M462.19,617.47c.23,2.18.5,4.37.7,6.56a25.85,25.85,0,0,1,.12,3.17,4.42,4.42,0,0,1-.25,1.95,1.62,1.62,0,0,1-1.35,1,1.84,1.84,0,0,1-1.45-1,5.21,5.21,0,0,1-.4-1.71,27.77,27.77,0,0,1-.37-3.41c-.13-2.18-.19-4.38-.28-6.56a1.65,1.65,0,0,1,1.64-1.64,1.68,1.68,0,0,1,1.64,1.64Z"/><path class="cls-13" d="M455.37,610c.22,1.42.45,2.84.66,4.26a13.56,13.56,0,0,1,.18,2.38,3.38,3.38,0,0,1-.65,2.38.94.94,0,0,1-1.12.15,3.25,3.25,0,0,1-1.15-2.13,13.48,13.48,0,0,1-.37-2.36c-.1-1.43-.19-2.87-.27-4.31a1.39,1.39,0,0,1,2.72-.37Z"/><path class="cls-13" d="M428.27,637.88c.11,2.1.25,4.21.29,6.31,0,1,0,2-.06,3s-.2,2.8-1.58,2.8-1.5-1.8-1.58-2.8a28.23,28.23,0,0,1-.06-3c0-2.1.17-4.21.28-6.31a1.36,1.36,0,0,1,2.71,0Z"/><path class="cls-13" d="M421.1,627.67c.14,1.34.31,2.67.44,4a11.2,11.2,0,0,1,0,1.92c-.06.83,0,1.75-.72,2.33a1,1,0,0,1-1.2.16,2.15,2.15,0,0,1-.87-1.08c-.09-.32-.13-.68-.19-1a14.3,14.3,0,0,1-.22-2.26c0-1.35,0-2.71,0-4.07a1.36,1.36,0,0,1,1.35-1.35,1.4,1.4,0,0,1,1.36,1.35Z"/><path class="cls-13" d="M415.85,641.51l.36,2.65a14.89,14.89,0,0,1,.12,1.63,6.37,6.37,0,0,1,0,.76,1.38,1.38,0,0,1-1.16,1.18,1.42,1.42,0,0,1-1.35-.67,2.3,2.3,0,0,1-.23-.89,12.83,12.83,0,0,1-.21-1.62c0-.89-.09-1.79-.13-2.68a1.33,1.33,0,0,1,1.16-1.31,1.27,1.27,0,0,1,.85.16,1.24,1.24,0,0,1,.61.79Z"/><path class="cls-13" d="M474.46,742.21c.14,1.43.29,2.86.37,4.31a12.4,12.4,0,0,1-.06,2.11,10.11,10.11,0,0,1-.17,1.36,2.07,2.07,0,0,1-1,1.16,1.1,1.1,0,0,1-1.11,0,2.11,2.11,0,0,1-1-1.16,10.31,10.31,0,0,1-.17-1.36,12.4,12.4,0,0,1-.06-2.11c.08-1.45.23-2.88.37-4.31a1.38,1.38,0,1,1,2.75,0Z"/><path class="cls-13" d="M469.56,748.42c0,.9.08,1.79.11,2.68a4.91,4.91,0,0,1-.09,1.53c-.05.21-.1.42-.16.63a1.26,1.26,0,0,1-2.44,0c-.05-.19-.09-.39-.14-.58a5.62,5.62,0,0,1-.11-1.58l.12-2.68a1.36,1.36,0,0,1,1.35-1.35,1.39,1.39,0,0,1,1.36,1.35Z"/><path class="cls-13" d="M467,731.11c0,.91.07,1.82.05,2.73,0,.46-.06.92-.09,1.37a1.77,1.77,0,0,1-.49,1.35,1.25,1.25,0,0,1-1.92,0,1.81,1.81,0,0,1-.5-1.35c0-.45-.07-.91-.08-1.37,0-.91,0-1.82.05-2.73a1.49,1.49,0,1,1,3,0Z"/><path class="cls-13" d="M421.4,845.21v3.2a12.74,12.74,0,0,1-.39,3.48,1.57,1.57,0,0,1-2.64.7,2.44,2.44,0,0,1-.52-1.64,10.85,10.85,0,0,1,0-1.89c.13-1.29.33-2.57.49-3.85a1.66,1.66,0,0,1,.44-1.08,1.56,1.56,0,0,1,1.08-.44,1.53,1.53,0,0,1,1.51,1.52Z"/><path class="cls-13" d="M413,843.07c.22,1.18.46,2.36.63,3.55a10,10,0,0,1,.12,2c0,.31-.05.61-.09.92a2,2,0,0,1-.5,1.1.83.83,0,0,1-1,.13,3.08,3.08,0,0,1-1.11-1.78c-.1-.29-.21-.58-.28-.87a10.61,10.61,0,0,1-.17-1.13c-.15-1.19-.24-2.39-.36-3.59a1.41,1.41,0,0,1,1.22-1.38,1.39,1.39,0,0,1,1.54,1Z"/><path class="cls-13" d="M491.33,853.19c.1,2.24.22,4.46.21,6.69a23.84,23.84,0,0,1-.23,3.48,8.3,8.3,0,0,1-.87,3.21,1,1,0,0,1-1.71,0,8.53,8.53,0,0,1-.69-3.28,24.27,24.27,0,0,1,0-3.41c.14-2.24.41-4.46.67-6.69a1.34,1.34,0,0,1,1.3-1.3,1.32,1.32,0,0,1,1.3,1.3Z"/><path class="cls-13" d="M454.93,867c.14,1.43.29,2.87.44,4.31a9.91,9.91,0,0,1,0,2.11,8.33,8.33,0,0,1-.14,1.33,2.05,2.05,0,0,1-.84,1.12,1,1,0,0,1-1,0c-.85-.47-1-1.32-1.13-2.18a11.85,11.85,0,0,1-.22-2.38c0-1.44,0-2.88,0-4.31a1.47,1.47,0,0,1,1.45-1.45,1.5,1.5,0,0,1,1.45,1.45Z"/><path class="cls-13" d="M306.81,837.66c0,1.28,0,2.56,0,3.85,0,.64,0,1.28,0,1.92a4.12,4.12,0,0,1-.86,2.49,1.45,1.45,0,0,1-2,0,2.48,2.48,0,0,1-.56-1.31,6.66,6.66,0,0,1-.13-1.18,17.56,17.56,0,0,1,.18-1.92l.48-3.85a1.46,1.46,0,0,1,2.92,0Z"/><path class="cls-13" d="M298.24,827.89l.15,4.07a11.28,11.28,0,0,1-.09,2.25,8.17,8.17,0,0,1-.16,1,2,2,0,0,1-.82,1,.92.92,0,0,1-1,0,2,2,0,0,1-.82-1c-.08-.31-.11-.67-.16-1a11.3,11.3,0,0,1-.08-2.25l.15-4.07a1.42,1.42,0,0,1,1.39-1.4,1.43,1.43,0,0,1,1.4,1.4Z"/><path class="cls-13" d="M285.5,850.09c.15,1.22.34,2.43.45,3.66a10.07,10.07,0,0,1,0,1.82,3.62,3.62,0,0,1-.31,1.42,1.59,1.59,0,0,1-1.29.85A1.66,1.66,0,0,1,283,857a3.47,3.47,0,0,1-.36-1.1,13,13,0,0,1-.31-2.14c-.05-1.22,0-2.44,0-3.66A1.61,1.61,0,0,1,285,849a1.85,1.85,0,0,1,.47,1.14Z"/><path class="cls-13" d="M318.8,869.18v3.2a14.1,14.1,0,0,1-.32,3.49,1.58,1.58,0,0,1-1.12,1.12,1.37,1.37,0,0,1-.85,0,1.71,1.71,0,0,1-1.17-1.54,12.7,12.7,0,0,1,.13-3.14c.13-1,.27-2.09.4-3.13a1.6,1.6,0,0,1,.43-1,1.48,1.48,0,0,1,1-.43,1.5,1.5,0,0,1,1.47,1.47Z"/><path class="cls-13" d="M222.34,847c.13,2,.27,4,.4,6,.06,1,.12,2,.09,2.95,0,.49,0,1-.05,1.47a3.46,3.46,0,0,1-.53,1.64,1,1,0,0,1-1.74,0,3.57,3.57,0,0,1-.62-1.64l-.15-1.36c-.1-1-.13-2-.14-3.06,0-2,0-4,0-6a1.41,1.41,0,0,1,1.39-1.4,1.42,1.42,0,0,1,1.4,1.4Z"/><path class="cls-13" d="M261,741.82a10.49,10.49,0,0,1-.16,4.53,4.17,4.17,0,0,1-.56,1.14,1.81,1.81,0,0,1-1.47,1,1.23,1.23,0,0,1-1.07-.62,1.78,1.78,0,0,1-.13-1.16c.05-.34.13-.67.18-1l-.06.41c.1-.72.34-1.41.44-2.13,0,.13,0,.27-.05.4a8.68,8.68,0,0,0,0-2.22,1.44,1.44,0,0,1,.43-1,1.47,1.47,0,0,1,.84-.4,1.44,1.44,0,0,1,1.6,1Z"/><path class="cls-13" d="M251.68,733.33c.09,1.27.19,2.55.21,3.83a9.08,9.08,0,0,1-.2,2.14,2.83,2.83,0,0,1-1,1.91.85.85,0,0,1-.92,0,2.8,2.8,0,0,1-1-1.91,9.63,9.63,0,0,1-.19-2.14c0-1.28.12-2.56.2-3.83a1.46,1.46,0,1,1,2.91,0Z"/><path class="cls-13" d="M307,642.32c-.13,1.5-.23,3-.43,4.5a19.88,19.88,0,0,1-.32,2c-.09.35-.21.7-.33,1a3.61,3.61,0,0,1-.24.65,2.35,2.35,0,0,1-.69.64,1.23,1.23,0,0,1-1.66-.44,3.59,3.59,0,0,1-.3-2.34,19.57,19.57,0,0,1,.41-2.39c.26-1.36.65-2.72,1-4.07a1.32,1.32,0,0,1,1.44-.94,1.3,1.3,0,0,1,1.14,1.29Z"/><path class="cls-13" d="M298,635.22c-.11,1.33-.22,2.66-.32,4a13.9,13.9,0,0,1-.3,2.23,7.43,7.43,0,0,1-.42,1.23,2.3,2.3,0,0,1-.83,1,1.24,1.24,0,0,1-1.49-.19,2.14,2.14,0,0,1-.57-1.19A9.67,9.67,0,0,1,294,641a14.37,14.37,0,0,1,.26-2.25c.21-1.31.41-2.63.62-4a1.62,1.62,0,0,1,3.17.43Z"/><path class="cls-13" d="M257.62,578.39a26.15,26.15,0,0,1-.94,5.26,15.8,15.8,0,0,1-1,2.57c-.49.92-1,1.8-2,2.1a1.12,1.12,0,0,1-1.35-.76,4,4,0,0,1,.35-2.62c.23-.74.49-1.47.73-2.21s.46-1.48.63-2.24c.09-.37.16-.73.23-1.1,0-.21.07-.42.11-.63s0-.22,0-.32c0,.17,0,.15,0-.05a1.62,1.62,0,1,1,3.24,0Z"/><path class="cls-13" d="M243.13,563.74c-.07.88-.13,1.76-.21,2.64,0,.51-.17,1-.26,1.53a2,2,0,0,1-.88,1.45.89.89,0,0,1-1-.13,2.07,2.07,0,0,1-.55-1.66c0-.41,0-.83,0-1.24.08-.86.18-1.73.27-2.59a1.44,1.44,0,0,1,.39-.94,1.33,1.33,0,0,1,.94-.39,1.35,1.35,0,0,1,1.34,1.33Z"/><path class="cls-13" d="M244.19,593.05c0,1.35-.09,2.71-.13,4.07a12,12,0,0,1-.24,2.23,6.8,6.8,0,0,1-.24,1,2.25,2.25,0,0,1-.8,1,.91.91,0,0,1-1.09-.14A3.32,3.32,0,0,1,241,599a11.31,11.31,0,0,1,0-1.93l.33-4a1.44,1.44,0,1,1,2.87,0Z"/><path class="cls-13" d="M266.59,485.17l-.3,4.24c-.05.68-.15,1.36-.24,2a3.43,3.43,0,0,1-.85,2.34.88.88,0,0,1-1.37-.18,3.33,3.33,0,0,1-.35-2.32c.06-.75.12-1.49.22-2.23l.57-4.2a1.18,1.18,0,0,1,2.32.31Z"/><path class="cls-13" d="M254,483.83c-.08,1.18-.15,2.36-.23,3.54a8.62,8.62,0,0,1-.31,2,2.78,2.78,0,0,1-.51,1.15,1.4,1.4,0,0,1-1,.47,1.33,1.33,0,0,1-1-.65,2.87,2.87,0,0,1-.31-1.23,7.44,7.44,0,0,1,0-1.7c.09-1.18.19-2.36.28-3.54a1.56,1.56,0,0,1,3.12,0Z"/><path class="cls-13" d="M258.44,437.22c0,1.49,0,3,0,4.46a14.45,14.45,0,0,1-.15,2.46,3.54,3.54,0,0,1-1.22,2.34,1.17,1.17,0,0,1-1.39-.18,3.77,3.77,0,0,1-.84-2.47,11.91,11.91,0,0,1,.11-2.23c.15-1.46.29-2.92.43-4.38a1.55,1.55,0,1,1,3.1,0Z"/><path class="cls-13" d="M511.58,622.35c.18,1.94.37,3.89.52,5.85.07,1,.13,1.95.14,2.92,0,1.29-.28,3.26-2,3.26s-2-2-2.1-3.26c-.07-1-.09-2-.1-2.92,0-2,0-3.9.06-5.85a1.75,1.75,0,0,1,1.72-1.73,1.78,1.78,0,0,1,1.72,1.73Z"/><path class="cls-13" d="M503.84,624.61c.29,1.06.57,2.12.87,3.17a9.37,9.37,0,0,1,.34,1.89c0,.28,0,.56,0,.83s0,.24,0,.36a1.75,1.75,0,0,1-.47,1.09,1.39,1.39,0,0,1-1.66.22c-.69-.36-.89-1.27-1.16-1.94a7.42,7.42,0,0,1-.39-1.61c-.15-1.07-.33-2.14-.5-3.21a1.75,1.75,0,0,1,.15-1.17,1.57,1.57,0,0,1,.91-.69,1.53,1.53,0,0,1,1.85,1.06Z"/><path class="cls-13" d="M464.72,454.15a27,27,0,0,1,1.72,5.77,14.83,14.83,0,0,1,.23,3.26c-.06,1-.08,2.65-1.3,3s-1.71-1.46-1.87-2.36c-.09-.55-.22-1.09-.28-1.63,0-.27-.05-.54-.08-.8s0-.27-.05-.4,0-.27,0-.14c-.14-1.1-.23-1.88-.44-3a29.8,29.8,0,0,0-.72-2.93,1.46,1.46,0,0,1,2.81-.77Z"/><path class="cls-13" d="M458,465.72a14.87,14.87,0,0,1,1.18,3.86,8.67,8.67,0,0,1,.13,2.27,10.82,10.82,0,0,1-.2,1.27,1.65,1.65,0,0,1-1.57,1.19,1.54,1.54,0,0,1-.78-.23,1.66,1.66,0,0,1-.79-1.38c0-.16,0-.33,0-.49,0-.62-.07-1.25-.11-1.88a4.58,4.58,0,0,0-.09-.9c.13.48,0,0,0-.15s-.06-.32-.1-.48a13.56,13.56,0,0,0-.53-1.86,1.59,1.59,0,0,1,2.9-1.22Z"/><path class="cls-14" d="M423.9,486.79h546a3.8,3.8,0,0,1,3.8,3.8v634.5a0,0,0,0,1,0,0H420.1a0,0,0,0,1,0,0V490.59A3.8,3.8,0,0,1,423.9,486.79Z"/><line class="cls-9" x1="973.67" y1="617.38" x2="420.1" y2="617.38"/><line class="cls-9" x1="888.57" y1="1076.35" x2="513.17" y2="1076.35"/><path class="cls-4" d="M769.86,547.27A11.82,11.82,0,1,1,758,535.45,11.82,11.82,0,0,1,769.86,547.27Z"/><path class="cls-9" d="M769.86,547.27A11.82,11.82,0,1,1,758,535.45"/><path class="cls-4" d="M852.93,547.27a11.82,11.82,0,1,1-11.82-11.82A11.82,11.82,0,0,1,852.93,547.27Z"/><path class="cls-9" d="M852.93,547.27a11.82,11.82,0,1,1-11.82-11.82"/><path class="cls-4" d="M936,547.27a11.82,11.82,0,1,1-11.82-11.82A11.82,11.82,0,0,1,936,547.27Z"/><path class="cls-9" d="M936,547.27a11.82,11.82,0,1,1-11.82-11.82"/><line class="cls-9" x1="740.22" y1="575.64" x2="775.86" y2="575.64"/><line class="cls-9" x1="823.29" y1="575.64" x2="858.93" y2="575.64"/><line class="cls-9" x1="906.36" y1="575.64" x2="942" y2="575.64"/><circle class="cls-4" cx="511" cy="552.75" r="23.89"/><path class="cls-9" d="M534.89,552.75A23.89,23.89,0,1,1,511,528.86"/><line class="cls-9" x1="478.2" y1="588.92" x2="543.8" y2="588.92"/><line class="cls-9" x1="596.3" y1="486.79" x2="596.3" y2="617.38"/><path class="cls-4" d="M659.26,549.86H642.82A6.87,6.87,0,0,1,636,543h0a6.88,6.88,0,0,1,6.87-6.87h16.44a6.88,6.88,0,0,1,6.88,6.87h0A6.87,6.87,0,0,1,659.26,549.86Z"/><path class="cls-4" d="M659.26,578.2H642.82a6.88,6.88,0,0,1-6.87-6.87h0a6.87,6.87,0,0,1,6.87-6.87h16.44a6.87,6.87,0,0,1,6.88,6.87h0A6.88,6.88,0,0,1,659.26,578.2Z"/><path class="cls-4" d="M692.25,549.86H690.9A6.87,6.87,0,0,1,684,543h0a6.88,6.88,0,0,1,6.87-6.87h1.35a6.88,6.88,0,0,1,6.87,6.87h0A6.87,6.87,0,0,1,692.25,549.86Z"/><path class="cls-4" d="M692.25,578.2H690.9a6.88,6.88,0,0,1-6.87-6.87h0a6.87,6.87,0,0,1,6.87-6.87h1.35a6.87,6.87,0,0,1,6.87,6.87h0A6.88,6.88,0,0,1,692.25,578.2Z"/><path class="cls-9" d="M666.14,543h0a6.87,6.87,0,0,1-6.88,6.87H642.82A6.87,6.87,0,0,1,636,543h0a6.88,6.88,0,0,1,6.87-6.87"/><path class="cls-9" d="M666.14,571.33h0a6.88,6.88,0,0,1-6.88,6.87H642.82a6.88,6.88,0,0,1-6.87-6.87h0a6.87,6.87,0,0,1,6.87-6.87"/><path class="cls-9" d="M699.12,543h0a6.87,6.87,0,0,1-6.87,6.87H690.9A6.87,6.87,0,0,1,684,543h0a6.88,6.88,0,0,1,6.87-6.87"/><path class="cls-9" d="M699.12,571.33h0a6.88,6.88,0,0,1-6.87,6.87H690.9a6.88,6.88,0,0,1-6.87-6.87h0a6.87,6.87,0,0,1,6.87-6.87"/><circle class="cls-4" cx="708.75" cy="808.69" r="150.42" transform="translate(-364.24 738.02) rotate(-45)"/><path class="cls-9" d="M767.3,947.29a150.44,150.44,0,1,1-58.55-289"/><path class="cls-9" d="M855,844.11a150.52,150.52,0,0,1-57.87,86.33"/><circle class="cls-5" cx="708.75" cy="808.69" r="118.8"/><g class="cls-15"><path class="cls-16" d="M522,791.81c14.18-12,33.84-14.94,52.41-16.11,32.49-2,73.16-4.79,104.41,4.55,33.87,10.13,32.93,45.13,81.54,40,8-.83,46.45.11,52.67,5.14,23.18,18.73,10.49,50.88,13.06,61.89,2.39,10.51-44.88,13.85-52.2,14.62-13,1.36-26.32-1.37-39-3.78a383.25,383.25,0,0,0-69.5-6.69"/><path class="cls-6" d="M563.51,780.75c16.56,3.67,30.35,11.39,45.46,18.43s19.93,46.33,35.73,51.19c38.88,12,84.48-.34,115.82,25.58,2.86,2.36,35.35,15.08,36.58,18.58,2.24,6.35-9.09,19.66-15.15,22.59-8.32,4-48.14,20.91-57.46,21-15.76.14-66.63-10.62-79.59-24.31-21.72-22.94-27.92-14.56-59.52-15.27-14.5-.33-29.27-.12-43.08,4.33"/></g><path class="cls-9" d="M601,795.38c9.68,4.57,20.6,17,24.14,27s10.18,20.26,18.8,26.61c8.2,6,19.09,6.46,29.24,7.19,25.82,1.86,49.26,2.34,73.64,11"/><path class="cls-9" d="M774.63,673.42a150.9,150.9,0,0,1,76.7,87.21"/><ellipse class="cls-17" cx="998.19" cy="808.69" rx="110.21" ry="116.72"/><path class="cls-4" d="M998.2,658.27c-78.45,0-142,67.34-142,150.42s63.59,150.42,142,150.42,142-67.35,142-150.42S1076.64,658.27,998.2,658.27Zm0,267.14C937.42,925.41,888,873.05,888,808.69S937.42,692,998.19,692s110.22,52.36,110.22,116.72S1059,925.41,998.19,925.41Z"/><path class="cls-9" d="M1108.41,808.69c0,64.36-49.44,116.72-110.22,116.72S888,873.05,888,808.69,937.42,692,998.19,692"/><line class="cls-9" x1="938.82" y1="833.83" x2="980.41" y2="751.33"/><line class="cls-9" x1="1014.78" y1="770.94" x2="1030.11" y2="740.52"/><line class="cls-9" x1="964.62" y1="870.45" x2="1003.87" y2="792.58"/><line class="cls-9" x1="1022.45" y1="868.66" x2="1057.57" y2="798.99"/><path class="cls-9" d="M1112.15,898.49a155.65,155.65,0,0,0,28.09-89.8c0-83.08-63.6-150.42-142-150.42"/><path class="cls-9" d="M889.73,711.56a155.19,155.19,0,0,0-33.57,97.13c0,83.07,63.59,150.42,142,150.42a134.74,134.74,0,0,0,45.71-8"/><path class="cls-18" d="M877.56,488.36H766.73V344.93H877.56A1027.49,1027.49,0,0,0,877.56,488.36Z"/><path class="cls-19" d="M853.66,488.36H742.82c2.34-42.71,1.92-91.43,0-143.43H853.66Q850.72,414.52,853.66,488.36Z"/><path class="cls-9" d="M853.66,344.93q-2.94,69.58,0,143.43"/><polygon class="cls-20" points="742.82 344.93 733.23 362.68 842.43 362.68 853.66 344.93 742.82 344.93"/><line class="cls-9" x1="733.23" y1="362.67" x2="842.43" y2="362.67"/><polygon class="cls-20" points="877.56 344.93 853.66 344.93 862.89 362.68 887.52 362.68 877.56 344.93"/><circle class="cls-21" cx="798.24" cy="416.64" r="38.94"/><path class="cls-9" d="M837.18,416.64a38.94,38.94,0,1,1-38.94-38.93"/><path class="cls-14" d="M825.33,399.81a7.9,7.9,0,0,0-3.62,3,9.59,9.59,0,0,0-.72,8.34c-.41-2.13-3.2-3.22-5.18-2.33a5.78,5.78,0,0,0-3,5.37,12.79,12.79,0,0,0,2,6.13,51.39,51.39,0,0,1,3.2,5.69,3.82,3.82,0,0,0-3,5.07,5.74,5.74,0,0,0-10.27,1.4c1-2.59,2-5.26,1.93-8s-1.45-5.7-4-6.76-6.11.65-6.2,3.42a21.15,21.15,0,0,0-2.71-6,8.32,8.32,0,0,0-5.36-3.56c-3-.42-6.08,1.55-7.5,4.26a12.6,12.6,0,0,0-.65,9,37,37,0,0,0,3.73,8.39,7,7,0,0,0-7.46-.28,19.47,19.47,0,0,0-2.28-5A6.65,6.65,0,0,0,770,425a3.78,3.78,0,0,0-2.44.41,31.89,31.89,0,1,0,57.75-25.62Z"/><line class="cls-9" x1="845.57" y1="481.18" x2="825.74" y2="481.18"/><line class="cls-9" x1="845.57" y1="475.62" x2="825.74" y2="475.62"/><line class="cls-9" x1="845.57" y1="470.07" x2="831.68" y2="470.07"/><path class="cls-19" d="M385.56,1031q.24-16.6.86-32.54a57.66,57.66,0,0,0-15.84-39.87L345,931.88H298.54l-30.46,35.58A57.86,57.86,0,0,0,254.32,1005q.42,13.35.65,26c.44,24.56.33,47.18-.18,68.43-.12,5.52-.29,10.94-.47,16.28,0,16.08,12.57,29.12,28.06,29.12h76c15.5,0,28.06-13,28.06-29.12q-.27-8.21-.46-16.28C385.39,1075.88,385.24,1053,385.56,1031Zm-48.67-71.35c0-6.15,7.24-9.17,11.34-4.73l15.95,17.24a34.85,34.85,0,0,1,9.18,23.67,9.63,9.63,0,0,1-9.44,9.8h-8.73a11.67,11.67,0,0,1-11.05-8.36L337.21,975a7,7,0,0,1-.32-2.09Z"/><path class="cls-20" d="M254.79,1099.46c.51-21.25.62-43.87.18-68.43H385.56c-.32,22-.17,44.85.4,68.43Z"/><path class="cls-21" d="M317,1010.41H287.47c-8.29,0-15,7-15,15.59v78.49c0,8.61,6.73,15.59,15,15.59H317c8.29,0,15-7,15-15.59V1026C332,1017.39,325.24,1010.41,317,1010.41Z"/><path class="cls-9" d="M272.45,1026v78.49c0,8.61,6.73,15.59,15,15.59H317c8.29,0,15-7,15-15.59"/><line class="cls-9" x1="320.95" y1="1107.87" x2="305.55" y2="1107.87"/><line class="cls-9" x1="320.95" y1="1102.86" x2="305.55" y2="1102.86"/><line class="cls-9" x1="320.95" y1="1097.85" x2="310.37" y2="1097.85"/><path class="cls-22" d="M298.7,924.63s-.86-25.93,0-29.26,44.25-3.46,45.24,0,.74,29.26.74,29.26Z"/><path class="cls-21" d="M295.71,923.61c-1.93,1.73-1.12,8.46,0,10.39s50,1.25,52.46,0,1-9,0-10.39S297.84,921.68,295.71,923.61Z"/><path class="cls-9" d="M295.71,934c1.11,1.92,50,1.25,52.46,0"/><line class="cls-9" x1="303.35" y1="900.29" x2="303.35" y2="915.32"/><line class="cls-9" x1="310.62" y1="900.29" x2="310.62" y2="915.32"/><line class="cls-9" x1="317.88" y1="900.29" x2="317.88" y2="915.32"/><line class="cls-9" x1="325.15" y1="900.29" x2="325.15" y2="915.32"/><line class="cls-9" x1="332.41" y1="900.29" x2="332.41" y2="915.32"/><line class="cls-9" x1="339.68" y1="900.29" x2="339.68" y2="915.32"/><path class="cls-9" d="M373.36,995.86a9.63,9.63,0,0,1-9.44,9.8h-8.73a11.67,11.67,0,0,1-11.05-8.36L337.21,975a7,7,0,0,1-.32-2.09V959.68c0-6.15,7.24-9.17,11.34-4.73"/><path class="cls-16" d="M588.27,1067.08c-14.83-1.76-29.85-.2-44.74-1.31s-30.43-5.42-40.44-16.49c-7.19-7.94-11-20.91-3.58-30,5.26-6.47,13.46-9.22,21.31-11.16,42.58-10.56,87.07-6.16,130.62-10.4,39.16-3.82,78.25-14.66,117.3-9.71,19.41,2.46,35.17,35.91,17.23,50.39-2,1.58-4.51,3.51-3.92,6a5.9,5.9,0,0,0,1.17,2.14c6,8,12.7,14.55,12.44,25.59-.13,5.51-2.71,10.58-4.2,15.86-1.79,6.34-2.58,14-8,17.37-4.51,2.8-10.49,1.06-14.58-2.39s-6.83-8.32-10-12.72a68.44,68.44,0,0,0-22.26-19.81c-11-6.1-24.2-6.52-36.42-7.87-13.63-1.51-27.31-2.47-41-3.25-27.42-1.57-54.9-2.43-82.22-5.57"/><path class="cls-23" d="M782.05,1044.44c-8.27-11.63-23.65-16-31.7-17.09-19-2.64-37.56,3-56,6.54-24.34,4.67-122.63-1-147.07.33-5.44.3-11.4.83-15.31,4.84"/><path class="cls-6" d="M652.59,1153.29l-117,.83c-5.46,0-11,.07-16.25-1.59-13.65-4.34-20.07-17.89-26.27-29.7-5.63-10.74-7.65-22.84-9.61-34.72l-2.28-13.87c-.73-4.42-1.42-9.12.4-13.24,2.22-5,7.68-8,13.07-9.66,9-2.82,18.6-3.08,28.06-3.15,22.61-.18,45.22.6,67.82,1.38,47.77,1.64,95.81,3.32,142.62,12.65,12.18,2.43,24.21,7.52,29.71,19.69,1.22,2.69,2.05,5.58,3.73,8,2.78,4,7.51,6.14,10.63,9.87,2.92,3.49,4.19,8.08,5.23,12.54,2.14,9.18,3.31,19.88-2.66,27.11-5.72,6.94-15.72,7.89-24.64,8.14q-11.06.32-22.14.25c-5.78,0-10.29,1.65-15.85,2.31-14.94,1.78-30.61,1.18-45.62,1"/><path class="cls-9" d="M519.76,1075.65c8.23,13.46,23.92,20.39,39.28,23.41,21.71,4.27,44.07,2.29,66.13.63,34.48-2.59,69.15-1.37,103.58-4.15,12.73-1,31.8-6.61,44.3-2.33"/><line class="cls-9" x1="494.78" y1="1145.15" x2="459.3" y2="979.06"/><line class="cls-9" x1="779.46" y1="1145.15" x2="814.93" y2="979.06"/><line class="cls-9" x1="532.15" y1="1146.14" x2="459.3" y2="979.06"/><line class="cls-9" x1="483.26" y1="1091.2" x2="532.15" y2="979.06"/><line class="cls-9" x1="579.28" y1="1146.14" x2="506.44" y2="979.06"/><line class="cls-9" x1="506.44" y1="1146.14" x2="579.28" y2="979.06"/><line class="cls-9" x1="626.41" y1="1146.14" x2="553.57" y2="979.06"/><line class="cls-9" x1="553.57" y1="1146.14" x2="626.41" y2="979.06"/><line class="cls-9" x1="673.54" y1="1146.14" x2="600.7" y2="979.06"/><line class="cls-9" x1="600.7" y1="1146.14" x2="673.54" y2="979.06"/><line class="cls-9" x1="720.67" y1="1146.14" x2="647.83" y2="979.06"/><line class="cls-9" x1="647.83" y1="1146.14" x2="720.67" y2="979.06"/><line class="cls-9" x1="767.8" y1="1146.14" x2="694.96" y2="979.06"/><line class="cls-9" x1="694.96" y1="1146.14" x2="767.8" y2="979.06"/><line class="cls-9" x1="790.98" y1="1091.2" x2="742.09" y2="979.06"/><line class="cls-9" x1="742.09" y1="1146.14" x2="814.93" y2="979.06"/><rect class="cls-24" x="492.21" y="1145.15" width="289.82" height="11.78"/><rect class="cls-24" x="448.28" y="971.08" width="377.68" height="7.98"/><path class="cls-25" d="M922.39,664.93,904,596.19c38.1-10.18,86-29.52,97.59-63.85,9.73-28.71-6.08-67-41.62-119.41l56.67-41.73c52.1,67.63,70.2,131.24,52.34,184C1051.56,606.67,1002.23,643.59,922.39,664.93Z"/><path class="cls-25" d="M909.71,594.49c-27.3,6.21-50.06,22-58.85,61.14l56.08,23.69s16.13,2.47,20.25-13.8S909.71,594.49,909.71,594.49Z"/><path class="cls-25" d="M839.64,667.78a7.55,7.55,0,0,0,3.23-.72c.86-.4,21-10,30.8-25.29a7.62,7.62,0,1,0-12.85-8.2c-6.16,9.66-19.71,17.49-24.41,19.69a7.62,7.62,0,0,0,3.23,14.52Z"/><path class="cls-9" d="M853.14,661.37a61.1,61.1,0,0,0,22.77-16.8,28.16,28.16,0,0,0,31.82,8.25"/><path class="cls-26" d="M1177.58,1108c-9.15-17.42-38.8-44.49-67.47-70.66-64.81-59.16-145.47-132.79-159.87-232.94-9.08-63.16,11.6-113.74,29.85-158.36,13.93-34.07,27.08-66.24,27.08-103.09h107.74c0,58-18.64,103.63-35.09,143.86-15.56,38.05-27.85,68.1-22.93,102.26,8.9,61.93,71,118.66,125.86,168.7,38.78,35.4,72.27,66,90.21,100.12Z"/><path class="cls-26" d="M1101.93,913.81c43.92,46.92,90.36,94.08,136.59,138.71"/><line class="cls-9" x1="1258.65" y1="1040.81" x2="1174.22" y2="1089.94"/><path class="cls-20" d="M1177.94,1107.71c-.61,11.66-47.24,33.52-41.73,46.11l123.3-64.57c24.57-12.86,13.78-31.45,13.78-31.45Z"/><path class="cls-20" d="M976,1131.88c-5.95,10-39.46,7.79-40.42,21.49h121.24c27.74,0,26.8-21.47,26.8-21.47Z"/><path class="cls-26" d="M1083.38,1131.88H975.64c0-188.37,41.67-308.65,75.16-405.29,23.67-68.32,42.36-122.27,40.08-181.58l107.66-4.15c3.07,79.57-20.73,148.27-45.94,221C1120.16,855.51,1083.38,961.65,1083.38,1131.88Z"/><path class="cls-9" d="M1053.46,1121.43c0-278.59,116.27-469.29,116.27-557.18"/><line class="cls-9" x1="985.64" y1="1122.12" x2="1079.76" y2="1122.12"/><path class="cls-9" d="M999.17,904.34c14.58-108,49.69-175.09,49.69-175.09"/><path class="cls-9" d="M1111.49,891.54C1099.38,940,1090,1009.19,1090,1009.19"/><path class="cls-22" d="M1159.11,377.38c27.51,47.79,40,115.55,36.6,169.62H1006.44a301.11,301.11,0,0,0-14.06-100.36c-.84-2.67-1.67-5.23-2.52-7.71-1.57-4.57-3.16-8.82-4.68-12.7-5.63,3.23-11.95,6.95-11.95,6.95-1.87-2.93-3.82-5.92-5.82-8.93l-4.51-6.85c-4.11-6.28-8.21-12.66-11.91-19.07-1.39-2.37-2.71-4.75-3.93-7.11a103.41,103.41,0,0,1-8.47-20.47,54,54,0,0,1-1.69-8,40.64,40.64,0,0,1,1.16-17.59,43.41,43.41,0,0,1,3.49-8.33,54.82,54.82,0,0,1,9.36-12.63l0,0a82.23,82.23,0,0,1,26.85-17.78,74.65,74.65,0,0,1,8.8-4.42,267.62,267.62,0,0,1,57.62-16.52,153.51,153.51,0,0,1,18.84-2.1c3-.28,6-.55,9-.73,7.58-.55,15.08-.81,22.46-.81a288.54,288.54,0,0,1,32.83,1.83q7.93.86,15.65,2.23a237,237,0,0,1,36,9.09c3.47,1.18,6.91,2.42,10.3,3.76l.86.35c2,.79,3.94,1.6,5.89,2.44,2.24,1,4.49,2,6.69,3.05-3.56,6.16-8.23,11.95-11.42,18-.07.1-.13.22-.19.32-1.79,3.44-3.43,7-4.92,10.53a141.38,141.38,0,0,0-6.77,20.5c-.57,2.29-1.05,4.61-1.5,7-.59,3.09-1.06,6.18-1.44,9.31-.33,2.74-.57,5.51-.76,8.27-1.38-.77-2.78-1.5-4.23-2.21s-2.9-1.45-4.43-2.14c-.83-.38-1.68-.77-2.54-1.14-2.58-1.14-5.26-2.19-8-3.21-.85-.28-1.71-.59-2.58-.89.35.53.67,1,1,1.56C1156.35,372.68,1157.75,375,1159.11,377.38Z"/><line class="cls-9" x1="1159.94" y1="371.05" x2="1131.88" y2="363.55"/><line class="cls-9" x1="992.38" y1="446.64" x2="971.06" y2="380.92"/><path class="cls-25" d="M1033.41,287.46c3.86,42.13-43.3,72.39-60.21,20.93C991,299.14,1011.07,292.22,1033.41,287.46Z"/><path class="cls-25" d="M936.55,231c3,22.68,2.87,45.68,18.8,50.71,5.08,1.6,12.41-.6,12.41-.6L981,317l49.24-23.48-16.37-43-33.65-43.89S933.93,210.4,936.55,231Z"/><path class="cls-5" d="M967.76,281.11l3.29,8.9c6.82-6.94,12.21-17,12.21-17A52.72,52.72,0,0,1,967.76,281.11Z"/><path class="cls-5" d="M936.45,229.37c15.84-4.37,29.89-14.86,37.21-7.26a22.58,22.58,0,0,1,6.48,16.5L984,239s2.91-13.07,8.65-8.47,3.57,13-.6,14.7l21.84,5.38L1003.79,223a27.15,27.15,0,0,0-30.72-17.34c-12.58,2.51-26.76,6.57-32.71,12.73C936.27,222.65,936.45,229.37,936.45,229.37Z"/><path class="cls-9" d="M949.12,247.51a31.63,31.63,0,0,1-1,9s1.81.15,5.06-1.63"/><path class="cls-9" d="M952.45,263.21a10,10,0,0,0,9.32-3.92"/><path class="cls-9" d="M955.83,242.76a6.83,6.83,0,0,1,.35-2.16,2.26,2.26,0,0,1,1.54-1.44,2.67,2.67,0,0,1,1.52.23,6.71,6.71,0,0,1,2.21,1.48"/><path class="cls-9" d="M937.94,247.63a5.94,5.94,0,0,1,.32-2,2,2,0,0,1,1.4-1.31,2.46,2.46,0,0,1,1.38.21,6.08,6.08,0,0,1,2,1.35"/><path class="cls-16" d="M1031.83,487.41H876.11a21.28,21.28,0,0,0-21.28,21.28h0A21.28,21.28,0,0,0,876.11,530h155.72a21.28,21.28,0,0,0,21.28-21.28h0A21.28,21.28,0,0,0,1031.83,487.41Z"/><path class="cls-6" d="M1012.34,455.5H895.6a16,16,0,0,0-16,15.95h0a16,16,0,0,0,16,16h116.74a16,16,0,0,0,15.95-16h0A16,16,0,0,0,1012.34,455.5Z"/><path class="cls-6" d="M843.75,532c7,54.12,12.63,104.39,14.49,144.25a8.41,8.41,0,0,0,8.37,7.56h20.12a6.47,6.47,0,0,0,6.47-6.47h0a9,9,0,0,1,9-9c35.9-.82,69.75-1,99.36,0a9,9,0,0,1,9,9h0a6.47,6.47,0,0,0,6.47,6.47h20.13a8.41,8.41,0,0,0,8.36-7.56L1060,532Z"/><path class="cls-26" d="M1061.18,521.85q-108.48,1.59-218.58,0a6.7,6.7,0,0,0-6.7,6.7v6.93a6.7,6.7,0,0,0,6.7,6.7h218.58a6.7,6.7,0,0,0,6.71-6.7v-6.93A6.7,6.7,0,0,0,1061.18,521.85Z"/><path class="cls-5" d="M1008.67,471.07q-54.3.19-109.4,0c-1.85,0-3.35.36-3.35.81v.85c0,.45,1.5.81,3.35.81h109.4c1.85,0,3.35-.36,3.35-.81v-.85C1012,471.43,1010.52,471.07,1008.67,471.07Z"/><path class="cls-5" d="M1029.69,504.33q-75.16.18-151.44,0c-2.56,0-4.64.36-4.64.81V506c0,.46,2.08.82,4.64.82h151.44c2.56,0,4.64-.36,4.64-.82v-.84C1034.33,504.69,1032.25,504.33,1029.69,504.33Z"/><path class="cls-5" d="M1035.49,568.22q-80.93.19-163,0c-2.76,0-5,.37-5,.82v.84c0,.45,2.24.82,5,.82h163c2.76,0,5-.37,5-.82V569C1040.49,568.59,1038.25,568.22,1035.49,568.22Z"/><path class="cls-5" d="M1032,590.89q-77.43.2-156,0c-2.64,0-4.79.37-4.79.82v.84c0,.45,2.15.82,4.79.82h156c2.64,0,4.79-.37,4.79-.82v-.84C1036.77,591.26,1034.62,590.89,1032,590.89Z"/><path class="cls-5" d="M1029.05,615.74q-74.53.19-150.16,0c-2.54,0-4.6.37-4.6.82v.84c0,.45,2.06.82,4.6.82h150.16c2.54,0,4.6-.37,4.6-.82v-.84C1033.65,616.11,1031.59,615.74,1029.05,615.74Z"/><path class="cls-5" d="M1026.38,640.56q-71.88.2-144.82,0c-2.45,0-4.44.35-4.44.79v.81c0,.44,2,.79,4.44.79h144.82c2.46,0,4.44-.35,4.44-.79v-.81C1030.82,640.91,1028.84,640.56,1026.38,640.56Z"/><path class="cls-5" d="M1035.05,606.59h-18.68a2.9,2.9,0,0,0-2.87,2.58,2.49,2.49,0,0,0,2.54,2.57h18.6a3,3,0,0,0,2.91-2.57A2.43,2.43,0,0,0,1035.05,606.59Z"/><path class="cls-5" d="M1033.24,629H1015a2.8,2.8,0,0,0-2.8,2.47,2.41,2.41,0,0,0,2.49,2.46h18.19a2.87,2.87,0,0,0,2.84-2.46A2.35,2.35,0,0,0,1033.24,629Z"/><path class="cls-5" d="M996.17,650.47H978.28a2.6,2.6,0,0,0-2.65,2.36,2.43,2.43,0,0,0,2.52,2.36H996a2.67,2.67,0,0,0,2.7-2.36A2.38,2.38,0,0,0,996.17,650.47Z"/><path class="cls-5" d="M1031.5,650.47h-17.89a2.73,2.73,0,0,0-2.74,2.36,2.34,2.34,0,0,0,2.45,2.36h17.8a2.79,2.79,0,0,0,2.78-2.36A2.28,2.28,0,0,0,1031.5,650.47Z"/><path class="cls-25" d="M900.88,692.08a7.61,7.61,0,0,0,7.47-6.16l4-20.38a7.62,7.62,0,0,0-15-2.92l-4,20.38a7.61,7.61,0,0,0,6,8.94A7.46,7.46,0,0,0,900.88,692.08Z"/><path class="cls-25" d="M885.93,692.08a7.62,7.62,0,0,0,7.47-6.16l4-20.38a7.62,7.62,0,0,0-15-2.92l-4,20.38a7.63,7.63,0,0,0,6,8.94A7.32,7.32,0,0,0,885.93,692.08Z"/><path class="cls-25" d="M871,692.08a7.62,7.62,0,0,0,7.47-6.16l4-20.38a7.62,7.62,0,0,0-15-2.92l-4,20.38a7.62,7.62,0,0,0,6,8.94A7.32,7.32,0,0,0,871,692.08Z"/><path class="cls-25" d="M856,692.08a7.61,7.61,0,0,0,7.47-6.16l4-20.38a7.62,7.62,0,1,0-15-2.92l-4,20.38a7.61,7.61,0,0,0,6,8.94A7.46,7.46,0,0,0,856,692.08Z"/><line class="cls-9" x1="897.38" y1="665.54" x2="893.98" y2="682.96"/><line class="cls-9" x1="883.2" y1="664.94" x2="879.8" y2="682.36"/><line class="cls-9" x1="869.02" y1="664.35" x2="865.62" y2="681.76"/><path class="cls-25" d="M1282.9,518a199.22,199.22,0,0,1-34.11,48.14c-30.92,32.66-74.91,59.34-129,78.55a528.7,528.7,0,0,1-56.9,16.54l-17.68-75.86a456,456,0,0,0,52.81-15.55c94.12-34.4,130.35-89.17,123-133.44-3.72-22.28-19.31-43.47-45.29-57.9a136.59,136.59,0,0,1,3.7-24.54,140.11,140.11,0,0,1,11.69-31c3.21-6.2,8-12.1,11.6-18.34,5.86,2.79,11.55,5.86,17.06,9.15,41.92,25.25,69.36,63.1,77.55,106.89.21,1,.37,1.93.53,2.89C1303.21,455.44,1297.92,487.76,1282.9,518Z"/><path class="cls-25" d="M991.06,695.2a8,8,0,0,0,3.12-.63A8.11,8.11,0,0,0,998.54,684c-4-9.5-1.07-26.5.38-32.25a8.12,8.12,0,0,0-15.73-4c-.67,2.65-6.39,26.32.38,42.51A8.1,8.1,0,0,0,991.06,695.2Z"/><path class="cls-25" d="M1007.15,695.2a8.12,8.12,0,0,0,7.49-11.25c-4-9.5-1.08-26.5.37-32.25a8.12,8.12,0,0,0-15.73-4c-.67,2.65-6.38,26.32.38,42.51A8.11,8.11,0,0,0,1007.15,695.2Z"/><path class="cls-25" d="M1023.25,695.2a8,8,0,0,0,3.12-.63,8.11,8.11,0,0,0,4.36-10.62c-4-9.5-1.07-26.5.38-32.25a8.12,8.12,0,0,0-15.73-4c-.68,2.65-6.39,26.32.38,42.51A8.1,8.1,0,0,0,1023.25,695.2Z"/><path class="cls-25" d="M1039.34,695.2a8.12,8.12,0,0,0,7.49-11.25c-4-9.5-1.08-26.5.37-32.25a8.12,8.12,0,0,0-15.73-4c-.67,2.65-6.38,26.32.38,42.51A8.11,8.11,0,0,0,1039.34,695.2Z"/><path class="cls-25" d="M1045.24,585.31c-29.09,6.62-53.32,23.45-62.68,65.12l59.72,25.24s17.18,2.63,21.57-14.7S1045.24,585.31,1045.24,585.31Z"/><path class="cls-25" d="M970.61,663.38a8.09,8.09,0,0,0,3.44-.77c.91-.43,22.4-10.62,32.8-26.94a8.12,8.12,0,1,0-13.69-8.73c-6.55,10.28-21,18.63-26,21a8.12,8.12,0,0,0,3.44,15.47Z"/><path class="cls-9" d="M996.39,658.34a51.74,51.74,0,0,0,1.8,24.86"/><path class="cls-9" d="M1012,658.34a51.74,51.74,0,0,0,1.8,24.86"/><path class="cls-9" d="M1028,658.34a51.74,51.74,0,0,0,1.8,24.86"/><path class="cls-27" d="M1273.44,688.26a27.74,27.74,0,1,1-27.73-27.73A27.73,27.73,0,0,1,1273.44,688.26Z"/><path class="cls-14" d="M1248.28,678a8.14,8.14,0,1,1-8.14-8.14A8.14,8.14,0,0,1,1248.28,678Z"/><circle class="cls-27" cx="1159.94" cy="166.26" r="27.74"/><path class="cls-14" d="M1162.51,156a8.14,8.14,0,1,1-8.14-8.14A8.14,8.14,0,0,1,1162.51,156Z"/><circle class="cls-27" cx="298.41" cy="99.23" r="27.74"/><path class="cls-14" d="M301,89a8.14,8.14,0,1,1-8.14-8.14A8.13,8.13,0,0,1,301,89Z"/><circle class="cls-27" cx="721.46" cy="1074.25" r="27.74"/><path class="cls-14" d="M724,1064a8.14,8.14,0,1,1-8.14-8.15A8.14,8.14,0,0,1,724,1064Z"/><circle class="cls-27" cx="93.29" cy="408.62" r="27.74" transform="matrix(0.16, -0.99, 0.99, 0.16, -324.99, 435.26)"/><path class="cls-14" d="M95.87,398.37a8.14,8.14,0,1,1-8.14-8.14A8.14,8.14,0,0,1,95.87,398.37Z"/><circle class="cls-27" cx="759.3" cy="767.44" r="27.74" transform="translate(-161.5 1331.03) rotate(-76.77)"/><path class="cls-14" d="M761.88,757.2a8.14,8.14,0,1,1-8.14-8.15A8.15,8.15,0,0,1,761.88,757.2Z"/><circle class="cls-27" cx="261.13" cy="853.16" r="27.74"/><path class="cls-14" d="M263.7,842.91a8.14,8.14,0,1,1-8.14-8.14A8.13,8.13,0,0,1,263.7,842.91Z"/><path class="cls-27" d="M1244.14,420.35a14.88,14.88,0,1,1-14.87-14.88A14.87,14.87,0,0,1,1244.14,420.35Z"/><path class="cls-14" d="M1231.23,416.64a4.37,4.37,0,1,1-4.37-4.36A4.37,4.37,0,0,1,1231.23,416.64Z"/><path class="cls-27" d="M1068,60.1a14.88,14.88,0,1,1-14.87-14.87A14.88,14.88,0,0,1,1068,60.1Z"/><path class="cls-14" d="M1055.07,56.4A4.37,4.37,0,1,1,1050.7,52,4.37,4.37,0,0,1,1055.07,56.4Z"/><circle class="cls-27" cx="1258.65" cy="894.53" r="14.88"/><circle class="cls-14" cx="1256.25" cy="890.83" r="4.37"/><path class="cls-27" d="M129.14,677.72a14.88,14.88,0,1,1-14.88-14.87A14.88,14.88,0,0,1,129.14,677.72Z"/><path class="cls-14" d="M116.23,674a4.37,4.37,0,1,1-4.37-4.37A4.37,4.37,0,0,1,116.23,674Z"/><path class="cls-27" d="M370.45,981.7a14.88,14.88,0,1,1-14.88-14.88A14.88,14.88,0,0,1,370.45,981.7Z"/><path class="cls-14" d="M357.54,978a4.37,4.37,0,1,1-4.37-4.36A4.37,4.37,0,0,1,357.54,978Z"/><circle class="cls-27" cx="947.57" cy="528.92" r="14.88"/><circle class="cls-14" cx="945.17" cy="525.22" r="4.37"/><path class="cls-27" d="M400.2,260a14.88,14.88,0,1,1-14.87-14.88A14.88,14.88,0,0,1,400.2,260Z"/><path class="cls-14" d="M387.29,256.3a4.37,4.37,0,1,1-4.37-4.36A4.37,4.37,0,0,1,387.29,256.3Z"/><path class="cls-27" d="M882.63,1093.83a8,8,0,1,1-8-8A8,8,0,0,1,882.63,1093.83Z"/><path class="cls-14" d="M876.42,1091.84a2.36,2.36,0,1,1-2.36-2.36A2.36,2.36,0,0,1,876.42,1091.84Z"/><path class="cls-27" d="M311.52,587.38a8,8,0,1,1-8-8A8,8,0,0,1,311.52,587.38Z"/><path class="cls-14" d="M305.31,585.38A2.36,2.36,0,1,1,303,583,2.35,2.35,0,0,1,305.31,585.38Z"/><path class="cls-27" d="M694.21,459.65a8,8,0,1,1-8-8A8,8,0,0,1,694.21,459.65Z"/><path class="cls-14" d="M688,457.65a2.36,2.36,0,1,1-2.36-2.36A2.35,2.35,0,0,1,688,457.65Z"/><path class="cls-27" d="M439,865.32a8,8,0,1,1-8-8A8,8,0,0,1,439,865.32Z"/><path class="cls-14" d="M432.83,863.32a2.36,2.36,0,1,1-2.35-2.36A2.35,2.35,0,0,1,432.83,863.32Z"/><path class="cls-27" d="M751.11,262a8,8,0,1,1-8-8A8,8,0,0,1,751.11,262Z"/><path class="cls-14" d="M744.9,260a2.36,2.36,0,1,1-2.36-2.36A2.36,2.36,0,0,1,744.9,260Z"/><path class="cls-27" d="M1319.91,787.16a8,8,0,1,1-8-8A8,8,0,0,1,1319.91,787.16Z"/><path class="cls-14" d="M1313.7,785.17a2.36,2.36,0,1,1-2.35-2.36A2.35,2.35,0,0,1,1313.7,785.17Z"/><path class="cls-27" d="M970.45,799a8,8,0,1,1-8-8A8,8,0,0,1,970.45,799Z"/><path class="cls-14" d="M964.25,797a2.36,2.36,0,1,1-2.36-2.35A2.36,2.36,0,0,1,964.25,797Z"/><path class="cls-27" d="M687.6,737.31a8,8,0,1,1-8-8A8,8,0,0,1,687.6,737.31Z"/><path class="cls-14" d="M681.39,735.32A2.36,2.36,0,1,1,679,733,2.36,2.36,0,0,1,681.39,735.32Z"/><path class="cls-27" d="M124.25,861a8,8,0,1,1-8-8A8,8,0,0,1,124.25,861Z"/><path class="cls-14" d="M118,859a2.36,2.36,0,1,1-2.35-2.36A2.35,2.35,0,0,1,118,859Z"/><circle class="cls-27" cx="975.34" cy="1082.6" r="14.88"/><path class="cls-14" d="M977.3,1078.9a4.37,4.37,0,1,1-4.36-4.37A4.37,4.37,0,0,1,977.3,1078.9Z"/><path class="cls-27" d="M188.5,214.29a14.88,14.88,0,1,1-14.88-14.88A14.88,14.88,0,0,1,188.5,214.29Z"/><path class="cls-14" d="M175.59,210.58a4.37,4.37,0,1,1-4.37-4.37A4.37,4.37,0,0,1,175.59,210.58Z"/></g></g></svg>