<svg id="Layer_1" data-name="Layer 1" xmlns="http://www.w3.org/2000/svg" viewBox="0 0 1382 1222"><defs><style>.cls-1{fill:#fff;}.cls-2{fill:#fd506d;}</style></defs><title>banner text</title><path class="cls-1" d="M74.64,425.74a65.49,65.49,0,0,1,26.45,5.36,72.15,72.15,0,0,1,21.85,14.56l-19.25,19.25a39.65,39.65,0,0,0-28.88-12.05,39.09,39.09,0,0,0-28.87,12.05,40.85,40.85,0,0,0,28.87,69.72,39.42,39.42,0,0,0,29-12.06L123,541.82a71,71,0,0,1-21.84,14.65,65.56,65.56,0,0,1-26.45,5.36q-28.13,0-48.13-20T6.6,493.7q0-28.12,20-48.21T74.73,425.4Z"/><path class="cls-1" d="M160,426.07V534h53.9v27H133V426.07Z"/><path class="cls-1" d="M304.89,426.07V453H251v27h40.43V507H251v27h53.9v27H224V426.07Z"/><path class="cls-1" d="M351.93,541.24l-8.79,19.41H314l61.18-137.09,61.35,137.09H407.33l-8.7-19.5-.42-.92H352.26Zm35.23-24.86-11.88-28-12,28Z"/><path class="cls-1" d="M527.6,500.65V426.07h27V563.5l-80.93-77.17V561h-27V423.56Z"/><path class="cls-1" d="M595.06,426.07V534H649v27H568V426.07Z"/><path class="cls-1" d="M659,426.07h27V561H659Z"/><path class="cls-1" d="M780.36,500.65V426.07h27V563.5l-80.94-77.17V561h-27V423.56Z"/><path class="cls-1" d="M901.72,426.07V453h-53.9v27h40.43V507H847.82v27h53.9v27H820.79V426.07Z"/><path class="cls-1" d="M954.28,534.21a13.77,13.77,0,0,0,13.65-13.65c0-5.77-2.26-9.45-6.87-11.13-9.7-3.6-7.36-2.76-16.82-6a53.82,53.82,0,0,1-25.36-18.67c-3.68-5-5.52-11.21-5.52-18.66a41,41,0,0,1,81.93,0h-27.2a13.6,13.6,0,1,0-27.2.08,12.26,12.26,0,0,0,5.86,11c8,5.19,7.12,4.19,16.74,7A52,52,0,0,1,989.69,502c3.76,4.86,5.69,11.14,5.69,18.75a41,41,0,0,1-81.94,0h27.29a13.64,13.64,0,0,0,13.64,13.64Z"/><path class="cls-1" d="M1047.77,534.21a13.77,13.77,0,0,0,13.65-13.65c0-5.77-2.26-9.45-6.87-11.13-9.71-3.6-7.36-2.76-16.82-6a53.77,53.77,0,0,1-25.36-18.67c-3.68-5-5.52-11.21-5.52-18.66a41,41,0,0,1,81.93,0h-27.2a13.6,13.6,0,0,0-27.2.08,12.26,12.26,0,0,0,5.86,11c8,5.19,7.11,4.19,16.74,7a52,52,0,0,1,26.2,17.74c3.76,4.86,5.69,11.14,5.69,18.75a41,41,0,0,1-81.94,0h27.28a13.65,13.65,0,0,0,13.65,13.64Z"/><circle class="cls-2" cx="1243.31" cy="444.07" r="131.05"/><path class="cls-1" d="M1221.29,441.1a2.68,2.68,0,0,1-.46,1.35,10.16,10.16,0,0,1-1.12,1.54,15,15,0,0,1-1.43,1.45,11,11,0,0,1-1.44,1.11,42.92,42.92,0,0,1-7.79,3.9,22.64,22.64,0,0,1-8,1.41,9.47,9.47,0,0,1-4.64-1.1,10,10,0,0,1-3.46-3.18,20,20,0,0,1-2.48-5.08,43.78,43.78,0,0,1-1.64-6.8c-.11-.72-.23-1.41-.37-2.07s-.26-1.26-.38-1.77-.2-.92-.29-1.23-.13-.45-.16-.45q-1,0-2.85,2.88t-4.84,8.09q-1.66,2.89-3.11,5.21a33,33,0,0,1-2.79,3.86,12.62,12.62,0,0,1-2.57,2.39,4.37,4.37,0,0,1-2.45.83,6.84,6.84,0,0,1-3.12-.62,4.43,4.43,0,0,1-1.91-2.08,12.31,12.31,0,0,1-1-3.86c-.19-1.61-.32-3.6-.37-6a31.23,31.23,0,0,0-.65-6.46q-.55-2.31-1.26-2.31c-.2,0-.54.26-1,.77s-1.09,1.18-1.77,2-1.4,1.78-2.18,2.83-1.54,2.12-2.28,3.2-1.46,2.13-2.12,3.15-1.21,1.93-1.62,2.71c-.34.6-.74,1.31-1.21,2.11s-1,1.62-1.45,2.46-1,1.63-1.5,2.4-.94,1.45-1.33,2a5.09,5.09,0,0,1-1.8,1.64,4.93,4.93,0,0,1-2.31.56,5.32,5.32,0,0,1-3.14-.87,6,6,0,0,1-1.91-2.29,10.69,10.69,0,0,1-.93-3.24,26.7,26.7,0,0,1-.25-3.69c0-1.08,0-2.23.16-3.43s.26-2.43.44-3.68.38-2.5.6-3.76.45-2.48.67-3.68q.57-3.31,1-6.06a33.42,33.42,0,0,0,.43-5.24,3.38,3.38,0,0,1,1-2.45,3.65,3.65,0,0,1,2.72-1q5.57,0,5.57,6.64a17.19,17.19,0,0,1-.25,2.6c-.17,1-.39,2.09-.67,3.24s-.58,2.35-.91,3.59-.65,2.48-1,3.68-.59,2.36-.85,3.47-.46,2.11-.6,3c0-.08.21-.34.46-.79s.54-1,.89-1.58l1.1-1.95,1.1-2c.35-.63.65-1.16.91-1.6s.43-.72.48-.83c1.47-2.33,2.85-4.41,4.16-6.24a50.11,50.11,0,0,1,3.78-4.73,13.66,13.66,0,0,1,4-3.16,9.68,9.68,0,0,1,4.42-1,4.42,4.42,0,0,1,3.3,1.25,8.78,8.78,0,0,1,1.93,3.11,18.74,18.74,0,0,1,1,4.08c.21,1.46.38,2.82.52,4.07.08.72.17,1.5.25,2.35s.16,1.65.23,2.43.12,1.48.17,2.11.06,1.13.06,1.46a.27.27,0,0,0,.14.27.74.74,0,0,0,.27.06c.14,0,.35-.21.63-.64s.59-1,1-1.67.74-1.42,1.14-2.24.8-1.62,1.19-2.41l1.08-2.18c.33-.66.59-1.16.79-1.5.66-1.08,1.39-2.28,2.18-3.61a30.17,30.17,0,0,1,2.64-3.76,15.82,15.82,0,0,1,3.18-3,7.25,7.25,0,0,1,7.45-.33,5.89,5.89,0,0,1,2.06,2.62,22.12,22.12,0,0,1,1.31,4.34c.36,1.73.81,3.74,1.37,6a35.24,35.24,0,0,0,2.51,7.48c.9,1.77,1.88,2.66,2.93,2.66a25.74,25.74,0,0,0,5.88-.75,28.25,28.25,0,0,0,7.21-3l.6-.29c.29-.14.6-.27.94-.4l1-.33a2.5,2.5,0,0,1,.67-.15,1.75,1.75,0,0,1,.7.17,2.61,2.61,0,0,1,.71.46,2.73,2.73,0,0,1,.56.66A1.6,1.6,0,0,1,1221.29,441.1Z"/><path class="cls-1" d="M1260.13,444.51a68.27,68.27,0,0,1-6.71,4.67,63.15,63.15,0,0,1-7.12,3.81,45.78,45.78,0,0,1-7,2.55,25.43,25.43,0,0,1-6.55.94,19.22,19.22,0,0,1-6.39-1,11.55,11.55,0,0,1-4.78-3.14,14.11,14.11,0,0,1-3-5.46,27.25,27.25,0,0,1-1-7.94,36.55,36.55,0,0,1,.79-7.77,35.55,35.55,0,0,1,2.14-6.75,27.74,27.74,0,0,1,3.18-5.54,23.61,23.61,0,0,1,3.88-4.16,16.91,16.91,0,0,1,4.26-2.62,11.29,11.29,0,0,1,4.28-.91,10.94,10.94,0,0,1,4.19.77,9.05,9.05,0,0,1,3.2,2.16,9.7,9.7,0,0,1,2.06,3.34,12.6,12.6,0,0,1,.73,4.37,11.24,11.24,0,0,1-.94,4.09,22.84,22.84,0,0,1-3.09,5.19,46.38,46.38,0,0,1-5.67,6.05,74,74,0,0,1-8.67,6.64c.2.45.42.93.67,1.44a4.55,4.55,0,0,0,1.14,1.43,6,6,0,0,0,2.06,1.08,11.25,11.25,0,0,0,3.4.42,23.57,23.57,0,0,0,5.65-.75,46.29,46.29,0,0,0,6.15-2,58,58,0,0,0,6.09-2.84c2-1.07,3.8-2.15,5.46-3.26a4.71,4.71,0,0,1,.9-.52,2.13,2.13,0,0,1,.89-.19,1.9,1.9,0,0,1,1.33.37,2.61,2.61,0,0,1,.37,1.71,2.9,2.9,0,0,1-.21.87,8.94,8.94,0,0,1-.49,1.16,11,11,0,0,1-.63,1.08,3.13,3.13,0,0,1-.58.71Zm-21.93-22.06a3.51,3.51,0,0,0-.56-2.24,2.41,2.41,0,0,0-1.94-.67,3,3,0,0,0-1.89.83,12.13,12.13,0,0,0-1.93,2.18,23.25,23.25,0,0,0-1.83,3.14,31.93,31.93,0,0,0-1.51,3.68,31.5,31.5,0,0,0-1,3.76,16.94,16.94,0,0,0-.4,3.45q2.2-1.83,4.22-3.66a42.17,42.17,0,0,0,3.53-3.59,18.88,18.88,0,0,0,2.43-3.52A7.22,7.22,0,0,0,1238.2,422.45Z"/><path class="cls-1" d="M1310.57,430.05a7.4,7.4,0,0,1-1.12,2.74,72,72,0,0,1-4.8,6.17,70,70,0,0,1-5.63,5.8,71.36,71.36,0,0,1-6.23,5.09,51.1,51.1,0,0,1-6.57,4,37.81,37.81,0,0,1-6.62,2.68,22.83,22.83,0,0,1-6.46,1q-7.11,0-11.08-4t-4-12.11a44.88,44.88,0,0,1,.45-6.38,33.7,33.7,0,0,1,1.52-6.19,34.26,34.26,0,0,1,7-11.74,15.25,15.25,0,0,1,2.14-2,18.43,18.43,0,0,1,2.62-1.71,15.68,15.68,0,0,1,2.9-1.2,10.65,10.65,0,0,1,3-.46,8.22,8.22,0,0,1,3.8.83,7.83,7.83,0,0,1,2.64,2.23,9.44,9.44,0,0,1,1.53,3.19,14,14,0,0,1,.5,3.81,13.52,13.52,0,0,1-2.74,7.66,43.48,43.48,0,0,1-7.6,8.12c-1.06.89-2.27,1.85-3.66,2.89l-4.65,3.51a4.49,4.49,0,0,0,.6,1.95,5.36,5.36,0,0,0,1.41,1.6,6.83,6.83,0,0,0,2.14,1.08,9.12,9.12,0,0,0,2.83.4,19.39,19.39,0,0,0,4.32-.52,33.19,33.19,0,0,0,4.53-1.39,39.12,39.12,0,0,0,4.36-2,36,36,0,0,0,3.86-2.39,66.89,66.89,0,0,0,5.92-4.75c1.9-1.71,3.73-3.44,5.51-5.22l2.2-2.2c1.52-1.36,2.82-2,3.9-2a1.19,1.19,0,0,1,1.15.56A2.16,2.16,0,0,1,1310.57,430.05Zm-32.41-7.64a8.31,8.31,0,0,0-.18-1.75,1.46,1.46,0,0,0-.61-1,5.14,5.14,0,0,0-3,1.21,13.37,13.37,0,0,0-3,3.43,26,26,0,0,0-2.6,5.36,34.44,34.44,0,0,0-1.68,7q2-1.45,3.93-3.06a33.65,33.65,0,0,0,3.57-3.34,18,18,0,0,0,2.62-3.68A8.75,8.75,0,0,0,1278.16,422.41Z"/><path class="cls-1" d="M1347.34,422.49a2.93,2.93,0,0,1-.34,1.43,4.79,4.79,0,0,1-.83,1.17,7,7,0,0,1-1.1.93q-.6.42-1.14.75a31.45,31.45,0,0,1-4,1.45c-1.43.42-2.84.77-4.26,1.06s-2.79.54-4.13.73-2.58.36-3.72.5l-2.43.27-2.47.27c-.81.08-1.55.17-2.25.25s-1.28.16-1.78.25q-.92,3.52-1.73,6.77t-1.39,6.11c0,.33-.14.79-.25,1.37s-.23,1.22-.35,1.91-.24,1.42-.35,2.18-.22,1.48-.31,2.16-.18,1.29-.23,1.83a12.14,12.14,0,0,0-.09,1.22,3.46,3.46,0,0,0,.46,2.06,5.84,5.84,0,0,0,.91,1,12.05,12.05,0,0,1,1.4,1.28,2.62,2.62,0,0,1,0,3.27,5.8,5.8,0,0,1-1.46,1.26,9.16,9.16,0,0,1-1.87.88,6,6,0,0,1-1.87.33,5.09,5.09,0,0,1-2.7-.73,7.18,7.18,0,0,1-2.08-1.93,8.93,8.93,0,0,1-1.32-2.74,10.88,10.88,0,0,1-.46-3.16,49.36,49.36,0,0,1,.41-6,62.62,62.62,0,0,1,1.21-6.61c.22-1,.46-2,.73-3.2s.5-2.27.72-3.32.42-2,.58-2.81l.34-1.64c-.58,0-1.42.11-2.52.25a31,31,0,0,1-3.88.21,18.69,18.69,0,0,1-3.16-.23,5,5,0,0,1-2.12-.85,3.53,3.53,0,0,1-1.2-1.7,8.83,8.83,0,0,1-.38-2.83,2,2,0,0,1,.71-1.6,4.65,4.65,0,0,1,1.74-.91,11.15,11.15,0,0,1,2.16-.42c.75-.07,1.42-.1,2-.1.28,0,.76,0,1.45-.11l2.27-.2,2.37-.21c.76-.07,1.35-.11,1.76-.11.14,0,.31-.26.52-.78a18.8,18.8,0,0,0,.64-2c.23-.83.45-1.75.69-2.76s.46-2,.69-3,.42-1.89.6-2.73.32-1.48.43-1.95a32.44,32.44,0,0,0,.77-3.9,24.8,24.8,0,0,1,.94-4.1,9.17,9.17,0,0,1,1.76-3.24,4.1,4.1,0,0,1,3.26-1.3,4.85,4.85,0,0,1,3.33,1,4.17,4.17,0,0,1,1.08,3.22,18.16,18.16,0,0,1-.19,2.45,16,16,0,0,1-.64,2.83q-1,3.19-1.71,6c-.47,1.86-.85,3.47-1.14,4.84s-.56,2.83-.81,4.38c1.14,0,2.22,0,3.26,0s2.1,0,3.18-.08,2.21-.1,3.39-.19,2.45-.21,3.84-.37c1.61-.2,3-.39,4.07-.58l2.93-.54q1.26-.26,2.31-.42a13.7,13.7,0,0,1,2.16-.17,2.12,2.12,0,0,1,1.1.32C1347.16,421.22,1347.34,421.72,1347.34,422.49Z"/><path class="cls-1" d="M1360.42,449a11.75,11.75,0,0,1-.81,4.26,17.66,17.66,0,0,1-2.14,4,20.84,20.84,0,0,1-3.07,3.45,22,22,0,0,1-3.62,2.7,19.49,19.49,0,0,1-3.74,1.77,10.64,10.64,0,0,1-3.48.64,4.92,4.92,0,0,1-3.7-1.22,4.6,4.6,0,0,1-1.17-3.31,5.68,5.68,0,0,1,.32-1.89,4.68,4.68,0,0,1,.89-1.57,4,4,0,0,1,1.43-1.08,4.44,4.44,0,0,1,1.93-.4h.75a7.84,7.84,0,0,0,1.87-.25,6.31,6.31,0,0,0,2.41-1.37,6,6,0,0,0,1.77-2.39,6.76,6.76,0,0,0,.56-2.43,3.39,3.39,0,0,0-.46-1.72,7.77,7.77,0,0,0-1.2-1.6,15.69,15.69,0,0,0-1.73-1.56c-.65-.51-1.33-1-2-1.56-1-.72-1.89-1.47-2.85-2.26a21.57,21.57,0,0,1-2.6-2.54,12.56,12.56,0,0,1-1.87-2.86,7.65,7.65,0,0,1-.7-3.27,11.9,11.9,0,0,1,.62-3.65,21.32,21.32,0,0,1,1.68-3.78,25.12,25.12,0,0,1,2.43-3.53,25.89,25.89,0,0,1,2.85-2.95,14.08,14.08,0,0,1,3-2,6.25,6.25,0,0,1,2.78-.75,4.52,4.52,0,0,1,3.22,1,4.38,4.38,0,0,1,1.1,3.33,4.93,4.93,0,0,1-.56,2.22,12.63,12.63,0,0,1-1.41,2.24,19.93,19.93,0,0,1-1.91,2.14c-.71.69-1.39,1.33-2.06,1.91a12.71,12.71,0,0,1-1.64,1.29,11.9,11.9,0,0,0-1.43,1.08,9.31,9.31,0,0,0,1.08,1.52,18.42,18.42,0,0,0,1.45,1.49c.53.49,1.06.95,1.6,1.4l1.52,1.24c1,.83,2.06,1.7,3.12,2.62a28,28,0,0,1,2.88,2.89,14.73,14.73,0,0,1,2.14,3.19A8,8,0,0,1,1360.42,449Z"/><path class="cls-1" d="M79.18,588.48a69.61,69.61,0,0,1,28.12,5.69,76.87,76.87,0,0,1,23.23,15.49l-20.47,20.47q-12.94-12.82-30.71-12.82a41.57,41.57,0,0,0-30.7,12.82,43.44,43.44,0,0,0,30.7,74.14,41.92,41.92,0,0,0,30.8-12.82l20.47,20.47a75.5,75.5,0,0,1-23.23,15.58,69.65,69.65,0,0,1-28.12,5.7q-29.91,0-51.18-21.28T6.82,660.75q0-29.91,21.27-51.27t51.18-21.36Z"/><path class="cls-1" d="M261.38,609.48q21.36,21.36,21.36,51.27t-21.36,51.17Q240,733.16,210.11,733.2t-51.18-21.28q-21.23-21.23-21.27-51.17t21.27-51.27q21.24-21.36,51.18-21.36T261.38,609.48Zm-82,20.38a43.42,43.42,0,1,0,61.41,61.41,43.52,43.52,0,0,0-30.71-74.22A41.6,41.6,0,0,0,179.41,629.86Z"/><path class="cls-1" d="M379.32,668.13v-79.3h28.75V735L322,652.91v79.4H293.25V586.16Z"/><path class="cls-1" d="M483.2,735,418.76,588.83h30.35l34,78.24,34-78.24h30.71Z"/><path class="cls-1" d="M644.57,588.83v28.66H587.25v28.75h43V674.9h-43v28.66h57.32v28.75H558.51V588.83Z"/><path class="cls-1" d="M744,668.13v-79.3h28.75V735l-86.07-82.07v79.4H657.93V586.16Z"/><path class="cls-1" d="M787,588.83h28.75V732.31H787Z"/><path class="cls-1" d="M916.06,588.83v28.66H858.74v28.75h43V674.9h-43v28.66h57.32v28.75H830V588.83Z"/><path class="cls-1" d="M1015.48,668.13v-79.3h28.75V735l-86.07-82.07v79.4H929.42V586.16Z"/><path class="cls-1" d="M1127.28,588.48a69.66,69.66,0,0,1,28.13,5.69,77,77,0,0,1,23.23,15.49l-20.47,20.47q-13-12.82-30.71-12.82a41.6,41.6,0,0,0-30.71,12.82,43.43,43.43,0,1,0,61.51,61.32l20.47,20.47a75.62,75.62,0,0,1-23.23,15.58,69.66,69.66,0,0,1-28.13,5.7q-29.91,0-51.18-21.28t-21.27-51.17q0-29.91,21.27-51.27t51.18-21.36Z"/><path class="cls-1" d="M1275.4,588.83v28.66h-57.32v28.75h43V674.9h-43v28.66h57.32v28.75h-86.07V588.83Z"/><path class="cls-1" d="M1305.93,698.48a19.84,19.84,0,0,1,19.49,19.5c0,3.82.09,8.9-3.29,15.57s-7.83,13.09-18.69,16.91c-3.38,1.16-11.93-.62-12.91-2-1.51-2.22,11.84-6.4,9.53-14-7.39-2.4-13.09-8.63-13.09-16.91a19.08,19.08,0,0,1,19-19Z"/><path class="cls-1" d="M96.44,761.43v28.66H39.13v28.75h43V847.5h-43v28.65H96.44V904.9H10.38V761.43Z"/><path class="cls-1" d="M170.68,907.57,106.24,761.43h30.35l34,78.23,34-78.23H235.3Z"/><path class="cls-1" d="M332.06,761.43v28.66H274.74v28.75h43V847.5h-43v28.65h57.32V904.9H246V761.43Z"/><path class="cls-1" d="M345.33,761.25H392c13.8,0,27.42,4.81,37.3,14.69s13.88,19.13,13.88,32.93v4.45c0,10.68-3,18.51-9.08,27s-11.12,11-20.56,14.6l32.4,49.93H410.83l-36.67-56.07V904.9H345.41Zm49.3,69.16c6,0,9-1.52,13.18-5.7s5.69-9,5.69-15S412,800,407.81,795.69s-11.66-5.78-17.63-5.78H374.07v40.41Z"/><path class="cls-1" d="M488.27,761.43,513,806.91l24.74-45.48h32.67l-43.08,79.12V904.9H498.69V840.55l-43-79.12Z"/><path class="cls-1" d="M697.36,761.43h35.87v28.66H697.36V904.9H668.61V790.09H632.74V761.43h64.62Z"/><path class="cls-1" d="M745.7,761.43h28.75V904.9H745.7Z"/><path class="cls-1" d="M858.65,854.7l70-95.94V904.9H899.86V845.71l-41.21,56.88-41.21-56.88V904.9H788.69V758.76Z"/><path class="cls-1" d="M1028.92,761.43v28.66H971.6v28.75h43V847.5h-43v28.65h57.32V904.9H942.86V761.43Z"/><path class="cls-1" d="M1114,871.88a18.31,18.31,0,0,1,18.34,18.34,18,18,0,0,1-18.34,18,18.31,18.31,0,0,1-18.33-18.34A18,18,0,0,1,1114,871.88Zm16.38-111.16-4.54,101.46h-23.94c-1.07-35.33-3.12-67-4.63-101.46Z"/><path class="cls-1" d="M1165.83,871.88a18.31,18.31,0,0,1,18.33,18.34,18,18,0,0,1-18.33,18,18.31,18.31,0,0,1-18.34-18.34A18,18,0,0,1,1165.83,871.88Zm16.37-111.16-4.53,101.46h-24c-1.07-35.33-3.11-67-4.63-101.46Z"/><path class="cls-1" d="M1217.63,871.88A18.31,18.31,0,0,1,1236,890.22a18,18,0,0,1-18.34,18,18.31,18.31,0,0,1-18.33-18.34A18,18,0,0,1,1217.63,871.88ZM1234,760.72l-4.54,101.46h-23.94c-1.07-35.33-3.12-67-4.63-101.46Z"/><path class="cls-1" d="M35.64,245,60.5,308.65,85.36,245l24.85,63.61L135,245h29.12l-53.9,137.43L85.11,315.6,60.5,382.47,6.6,245Z"/><path class="cls-1" d="M201.19,245v54h40.43V245h27V380h-27V326H201.19v54h-27V245Z"/><path class="cls-1" d="M363,245v27H309.08v27H349.5v27H309.08v26.95H363v27H282V245Z"/><path class="cls-1" d="M375.45,244.87H419.3c13,0,25.78,4.52,35.07,13.81s13.06,18,13.06,31v4.19c0,10-2.85,17.4-8.54,25.44S448.43,329.66,439.56,333L470,380h-33l-34.49-52.73V380h-27Zm46.36,65c5.61,0,8.46-1.43,12.39-5.36s5.36-8.45,5.36-14.06a16.92,16.92,0,0,0-5.36-13.23c-3.93-4-11-5.44-16.57-5.44H402.48v38Z"/><path class="cls-1" d="M563.51,245v27h-53.9v27H550v27H509.61v26.95h53.9v27H482.58V245Z"/></svg>