<svg id="Layer_1" data-name="Layer 1" xmlns="http://www.w3.org/2000/svg" viewBox="0 0 100 100"><defs><style>.cls-1{fill:#f6c43a;}.cls-2{fill:#66becc;}.cls-3{fill:#f0ecec;}</style></defs><title>card 2</title><path class="cls-1" d="M8.83,40.54a3.1,3.1,0,0,1-1.5-5.82c.08,0,7.75-4.25,16.69-8.4,12.29-5.72,21.1-8.63,26.19-8.67h0a3.1,3.1,0,0,1,0,6.2c-8.54.06-31.73,11.79-39.94,16.3A3.13,3.13,0,0,1,8.83,40.54Z"/><path class="cls-1" d="M91.64,40.54a3.07,3.07,0,0,1-1.49-.39c-8.22-4.51-31.4-16.24-39.94-16.3a3.1,3.1,0,0,1,0-6.2h0c5.09,0,13.9,3,26.18,8.67,9,4.15,16.62,8.36,16.69,8.4a3.1,3.1,0,0,1-1.49,5.82Z"/><path class="cls-1" d="M57.74,20.75c0,4.15-3.36,0-7.51,0s-7.51,4.15-7.51,0a7.51,7.51,0,0,1,15,0Z"/><polygon class="cls-1" points="50.23 43.48 12.7 43.48 12.7 34.88 14.61 34.88 14.61 41.57 50.23 41.57 50.23 43.48"/><polygon class="cls-1" points="87.76 43.48 50.23 43.48 50.23 41.57 85.86 41.57 85.86 34.88 87.76 34.88 87.76 43.48"/><path class="cls-1" d="M49.73,15.92a1.32,1.32,0,0,1,0-2.63A4.95,4.95,0,1,0,45,7.07a1.31,1.31,0,0,1-2.54-.67,7.57,7.57,0,1,1,7.32,9.52Z"/><rect class="cls-2" x="21.25" y="37.99" width="57.96" height="60.01"/><rect class="cls-3" x="21.25" y="86.86" width="57.96" height="5.21"/><rect class="cls-3" x="21.25" y="77.69" width="57.96" height="5.21"/></svg>