<svg id="Layer_1" data-name="Layer 1" xmlns="http://www.w3.org/2000/svg" viewBox="0 0 360 118"><title>logo</title><path d="M91.54,77,59.37,109.17,30.26,80.07c0-.48-.05-.94-.05-1.43,0-17,24.45,5.8,41.39,5.8C87.94,84.44,91.32,63.16,91.54,77Z"/><path d="M94.12,40.1a3.86,3.86,0,0,0-2.83-3.31l-.22-.06-24.52-5.4L66,31.19a10.33,10.33,0,0,0-3.27-.4h0l-.15,0h0l-.11,0-.28.08L62,31,61.9,31h0l-.13.07h0l-.12.07-.14.09-.15.13,0,0-.06.06a2.3,2.3,0,0,0,1.8,3.92,2.38,2.38,0,0,1,.73,0c.29,0,.64.12,1.14.24l.62.14h0c5.23,1.14,20.61,4.53,23.9,5.26,0,.22-.12.46-.18.66a14.37,14.37,0,0,0-.4,1.6C88.21,46,87.23,50,86.49,53l-.09.36c-.51,2.05-.9,3.61-1,3.92l1.18.32-1.19-.3h0l1.35.33,3.1.85v-.07h0c0-.1.14-.56.32-1.26l.75-3c.75-3,1.74-7.06,2.4-9.71,0-.07,0-.13,0-.19A10,10,0,0,1,93.68,43,7.63,7.63,0,0,0,94.12,40.1Z"/><path d="M102.15,74.62a2.29,2.29,0,0,1-1.63-.67l-24.9-24.9a2.3,2.3,0,1,1,3.26-3.25l24.89,24.9a2.3,2.3,0,0,1-1.62,3.92Z"/><path d="M59.09,117.68a2.29,2.29,0,0,1-1.63-.67L18.21,77.75a2.3,2.3,0,0,1,3.25-3.25l39.25,39.26a2.29,2.29,0,0,1,0,3.25A2.27,2.27,0,0,1,59.09,117.68Z"/><path d="M41.49,71A16.38,16.38,0,0,1,29.8,66.15a2.3,2.3,0,0,1,3.25-3.25A11.93,11.93,0,0,0,49.92,46a2.3,2.3,0,0,1,3.25-3.25A16.52,16.52,0,0,1,41.49,71Z"/><path d="M19.83,78.42a2.25,2.25,0,0,1-1.62-.67,2.29,2.29,0,0,1,0-3.25L29.8,62.9a2.3,2.3,0,0,1,3.25,3.25L21.46,77.75A2.29,2.29,0,0,1,19.83,78.42Z"/><path d="M51.54,46.71a2.3,2.3,0,0,1-1.62-3.92L61.25,31.46a2.3,2.3,0,0,1,3.25,3.25L53.17,46A2.29,2.29,0,0,1,51.54,46.71Z"/><path d="M59.09,117.68a2.3,2.3,0,0,1-1.63-3.92L100.52,70.7A2.3,2.3,0,0,1,103.77,74L60.71,117A2.27,2.27,0,0,1,59.09,117.68Z"/><path d="M59.56,25a2.3,2.3,0,0,0-2.51-1.14L22.31,31.52l-1.22.27a2.3,2.3,0,0,0-1.76,1.75l-.26,1.23L11.44,69.5a2.3,2.3,0,0,0,3.87,2.12L59.17,27.76A2.3,2.3,0,0,0,59.56,25ZM17.61,62.81,23.51,36l26.85-5.89Z"/><path d="M6.47,32a2.29,2.29,0,0,1-1.16-.31,10.35,10.35,0,1,1,15.58-8.94,10.27,10.27,0,0,1-3.2,7.48,2.3,2.3,0,0,1-3.18-3.32,5.69,5.69,0,0,0,1.78-4.16,5.76,5.76,0,1,0-8.66,5A2.3,2.3,0,0,1,6.47,32Z"/><path d="M21.58,36.33A2.29,2.29,0,0,1,20,35.66l-5.44-5.44,0,0,0,0A2.3,2.3,0,1,1,17.76,27l0,0,5.42,5.43a2.29,2.29,0,0,1,0,3.25A2.25,2.25,0,0,1,21.58,36.33Z"/><path d="M111,29.44l-3.76,1a10.21,10.21,0,0,0-7.46,8L99.12,42l-.66-3.57a10.24,10.24,0,0,0-7.47-8l-3.75-1,3.76-1a10.23,10.23,0,0,0,7.51-8l.61-3.16.61,3.16a10.21,10.21,0,0,0,7.51,8Z"/><path d="M109.67,50.46l-3.49.92a2.5,2.5,0,0,0-1.82,2l-.63,3.42-.63-3.42a2.5,2.5,0,0,0-1.82-2l-3.49-.92,3.55-.91a2.39,2.39,0,0,0,1.76-1.86l.63-3.28.63,3.28a2.39,2.39,0,0,0,1.76,1.86Z"/><path d="M124.24,50.93V17.51h15.27a19.2,19.2,0,0,1,7.9,1.49,11.47,11.47,0,0,1,5.13,4.27,11.85,11.85,0,0,1,1.82,6.61,11.29,11.29,0,0,1-7,10.81,19,19,0,0,1-7.9,1.51h-10l4.2-4.11V50.93Zm9.45-11.84-4.2-4.34h9.45a6.53,6.53,0,0,0,4.42-1.29,4.53,4.53,0,0,0,1.45-3.58,4.59,4.59,0,0,0-1.45-3.63A6.53,6.53,0,0,0,138.94,25h-9.45l4.2-4.34Z"/><path d="M158.94,50.93V17.51h15.28a19.23,19.23,0,0,1,7.9,1.49,11.52,11.52,0,0,1,5.13,4.27,11.84,11.84,0,0,1,1.81,6.61,11.11,11.11,0,0,1-6.94,10.72,19.59,19.59,0,0,1-7.9,1.45h-10l4.2-4V50.93Zm9.45-11.84-4.2-4.34h9.45a6.5,6.5,0,0,0,4.42-1.29,4.53,4.53,0,0,0,1.46-3.58,4.6,4.6,0,0,0-1.46-3.63A6.5,6.5,0,0,0,173.64,25h-9.45l4.2-4.34Zm11.22,11.84-8.3-12.17h10.07l8.35,12.17Z"/><path d="M194.27,50.93V17.51h9.45V50.93Z"/><path d="M222.19,51.6a29.93,29.93,0,0,1-7.9-1,20.19,20.19,0,0,1-6.18-2.65l3.1-7a21.86,21.86,0,0,0,5.18,2.37,19.31,19.31,0,0,0,5.85.93,11.22,11.22,0,0,0,3.15-.36,3.75,3.75,0,0,0,1.74-1,2,2,0,0,0,.55-1.4,2.06,2.06,0,0,0-1.05-1.82,9.66,9.66,0,0,0-2.72-1.1c-1.11-.28-2.35-.57-3.7-.85a41.51,41.51,0,0,1-4.06-1.1,16.78,16.78,0,0,1-3.7-1.74,8.63,8.63,0,0,1-2.72-2.82,8.43,8.43,0,0,1-1-4.42,9.48,9.48,0,0,1,1.65-5.44,11.36,11.36,0,0,1,4.94-3.91,20,20,0,0,1,8.21-1.48,28,28,0,0,1,6.47.74,20.39,20.39,0,0,1,5.66,2.17l-2.91,7A22.82,22.82,0,0,0,228,24.84a17,17,0,0,0-4.54-.64,10.1,10.1,0,0,0-3.15.4,3.67,3.67,0,0,0-1.72,1.08,2.38,2.38,0,0,0-.52,1.53,2,2,0,0,0,1,1.74A9.08,9.08,0,0,0,221.79,30c1.13.27,2.37.55,3.72.83s2.7.65,4.06,1.08a15.48,15.48,0,0,1,3.7,1.72A8.23,8.23,0,0,1,236,36.44a8.44,8.44,0,0,1,1,4.37,9.44,9.44,0,0,1-1.65,5.37,11.3,11.3,0,0,1-4.91,3.94A20,20,0,0,1,222.19,51.6Z"/><path d="M248,50.93V25H237.71v-7.5h29.93V25H257.42V50.93Z"/><path d="M271.17,50.93V17.51h9.45V50.93Z"/><path d="M287.35,50.93V17.51h7.78l18.43,22.25h-3.68V17.51h9.27V50.93h-7.78L292.94,28.69h3.67V50.93Z"/><path d="M335.19,43.63h17.47v7.3H325.83V17.51H352v7.31H335.19Zm-.67-13.18H350v7.07H334.52Z"/><path d="M137.89,108.51l-16-49.5h14.42l13.51,42.85h-7.28L156.7,59h12.87L183,101.86h-7L189.94,59H203.3l-16.05,49.5h-15L160.8,72.09h4l-12,36.42Z"/><path d="M200.68,108.51,222.53,59h13.79l21.92,49.5H243.68L226.56,65.87h5.52L215,108.51Zm11.95-9.62,3.61-10.32h24.18L244,98.89Z"/><path d="M279.6,109.5A44.74,44.74,0,0,1,267.9,108a30.39,30.39,0,0,1-9.16-3.93l4.6-10.32a32.45,32.45,0,0,0,7.67,3.5,28.48,28.48,0,0,0,8.66,1.38,16.9,16.9,0,0,0,4.67-.53,5.69,5.69,0,0,0,2.58-1.42,3,3,0,0,0,.81-2.08,3.06,3.06,0,0,0-1.55-2.69,14.24,14.24,0,0,0-4-1.63c-1.65-.42-3.48-.85-5.48-1.27a55.22,55.22,0,0,1-6-1.63,23.9,23.9,0,0,1-5.49-2.58,11.83,11.83,0,0,1-5.58-10.71A14,14,0,0,1,262,66a16.77,16.77,0,0,1,7.32-5.8A29.68,29.68,0,0,1,281.51,58a42.08,42.08,0,0,1,9.58,1.09,30.9,30.9,0,0,1,8.38,3.22l-4.31,10.4a33.37,33.37,0,0,0-7-2.87,25.51,25.51,0,0,0-6.72-1,14.88,14.88,0,0,0-4.67.6,5.25,5.25,0,0,0-2.54,1.59,3.55,3.55,0,0,0-.78,2.26A2.89,2.89,0,0,0,275,75.94a13.45,13.45,0,0,0,4,1.56q2.5.6,5.51,1.24a60.79,60.79,0,0,1,6,1.59A22.73,22.73,0,0,1,296,82.87a12.29,12.29,0,0,1,4,4.18,12.59,12.59,0,0,1,1.52,6.47,14,14,0,0,1-2.44,8,16.82,16.82,0,0,1-7.28,5.84A29.69,29.69,0,0,1,279.6,109.5Z"/><path d="M322,108.51H308V59h14ZM342,89.2H321V77.61H342Zm-1-30.19h14v49.5h-14Z"/></svg>