<svg id="Layer_1" data-name="Layer 1" xmlns="http://www.w3.org/2000/svg" viewBox="0 0 100 100"><defs><style>.cls-1{fill:#d6d6d6;}.cls-2{opacity:0.7;}.cls-3{fill:#99e0e0;}.cls-4{fill:#48bfbf;}.cls-5{fill:#485665;}</style></defs><title>card 1</title><path class="cls-1" d="M73.78,4.3H63.91a13.72,13.72,0,0,1-27.44,0h-29V21.56H26.6V66L88.31,4.3Z"/><polygon class="cls-1" points="26.61 66.01 26.61 66.18 73.78 66.18 73.78 21.56 92.96 21.56 92.96 4.3 88.31 4.3 26.61 66.01"/><g class="cls-2"><path class="cls-3" d="M93.08,57a15,15,0,0,1-7.28-1.65,21.31,21.31,0,0,0-9.88-2.18,21.27,21.27,0,0,0-9.87,2.18A15,15,0,0,1,58.77,57a15,15,0,0,1-7.28-1.65,21.31,21.31,0,0,0-9.88-2.18,21.27,21.27,0,0,0-9.87,2.18A15,15,0,0,1,24.46,57a15,15,0,0,1-7.28-1.65A21.31,21.31,0,0,0,7.3,53.15c-1.57,0-.82,1.07-.82,2.45s-.75,2.52.82,2.52h.22l4.82,12.8a3.22,3.22,0,0,1,1.44-.34,16.78,16.78,0,0,1,8.76,2.27,10.55,10.55,0,0,0,5.8,1.56,10.56,10.56,0,0,0,5.81-1.56,16.75,16.75,0,0,1,8.76-2.27,16.71,16.71,0,0,1,8.75,2.27,11.6,11.6,0,0,0,11.62,0,18,18,0,0,1,17.51,0,10.62,10.62,0,0,0,5.82,1.56,3.36,3.36,0,0,1,.71.08L91.6,61.92l1.48-4.37V59.2C93.08,57.83,94.66,57,93.08,57Z"/><path class="cls-4" d="M87.32,74.5a3.36,3.36,0,0,0-.71-.08,10.62,10.62,0,0,1-5.82-1.56,18,18,0,0,0-17.51,0,11.6,11.6,0,0,1-11.62,0,16.71,16.71,0,0,0-8.75-2.27,16.75,16.75,0,0,0-8.76,2.27,10.56,10.56,0,0,1-5.81,1.56,10.55,10.55,0,0,1-5.8-1.56,16.78,16.78,0,0,0-8.76-2.27,3.22,3.22,0,0,0-1.44.34,2.46,2.46,0,0,0-1.41,2.15,2.68,2.68,0,0,0,2.85,2.49h.31l5.78,15.34H81.74l3.93-11.54.94,0a2.69,2.69,0,0,0,2.85-2.49A2.58,2.58,0,0,0,87.32,74.5Z"/></g><path class="cls-5" d="M50.19,95.84H22.29c-2.59,0-7.23-1.13-9.33-8.68C9.1,73.25.56,40.42.48,40.09A2.85,2.85,0,1,1,6,38.66c.08.33,8.61,33.11,12.46,47,.83,3,2.11,4.49,3.83,4.49h27.9a2.86,2.86,0,0,1,0,5.71Z"/><path class="cls-5" d="M78.09,95.84H50.19a2.86,2.86,0,0,1,0-5.71h27.9c1.72,0,3-1.51,3.84-4.49C85.78,71.77,94.3,39,94.39,38.66a2.85,2.85,0,1,1,5.52,1.43c-.09.33-8.62,33.16-12.48,47.07C85.33,94.71,80.68,95.84,78.09,95.84Z"/></svg>