<svg id="Layer_1" data-name="Layer 1" xmlns="http://www.w3.org/2000/svg" viewBox="0 0 100 100"><defs><style>.cls-1{fill:#485665;}.cls-2{fill:#f6c43a;}.cls-3{fill:#2bbfbf;}.cls-4{fill:#f0ecec;}.cls-5{fill:#d2d0d0;}</style></defs><title>card 3</title><path class="cls-1" d="M33.5,47.78H29.22l36.1,45.29a1.12,1.12,0,0,0,1.57.18l.87-.7A1.11,1.11,0,0,0,67.94,91Z"/><path class="cls-1" d="M64.05,47.78h4.28L32.22,93.07a1.12,1.12,0,0,1-1.57.18l-.87-.7A1.11,1.11,0,0,1,29.61,91Z"/><rect class="cls-1" x="28.32" y="89.96" width="7.55" height="3.53" rx="1.12"/><rect class="cls-1" x="61.68" y="89.96" width="7.55" height="3.53" rx="1.12"/><path class="cls-2" d="M82,35.58a1.27,1.27,0,0,0,1.27-1.27v-4.7A1.27,1.27,0,0,0,82,28.34h-.51v7.24Z"/><rect class="cls-2" x="84.04" y="14.6" width="4.35" height="5.3" rx="1.27"/><path class="cls-1" d="M72.44,35.87V6.65a.61.61,0,0,1,1.21,0V36.25C73.65,37.29,72.44,37.28,72.44,35.87Z"/><path class="cls-3" d="M89.59,42.1s.84-2.12.85-2.12c-.41-.66-2.21-.67-2.59-1.33h0a46.45,46.45,0,0,1-6.31-2.2l0-12.14A70.42,70.42,0,0,1,78.42,8.42a20.87,20.87,0,0,0-2.75-1.48c-.22,4.26-.73,16.65-.18,31.71a7.57,7.57,0,0,0,.57,2,3.74,3.74,0,0,0,2.36,1.48Z"/><path class="cls-4" d="M75.67,6.94l-.37-.16c-1-.39-1.23.75-1.23.75V35.8a6.24,6.24,0,0,1,1.42,2.85C74.94,23.59,75.45,11.2,75.67,6.94Z"/><rect class="cls-1" x="73.65" y="7.53" width="0.42" height="28.27"/><path class="cls-5" d="M92.94,40.39c0-18.86-9.28-28.64-14.52-32a70.42,70.42,0,0,0,3.15,15.89s6.28,0,6.28,14.34c.38.66,1.33,2.79,1.74,3.45C92.51,42.1,92.94,41.43,92.94,40.39Z"/><path class="cls-1" d="M100,45.76a1.61,1.61,0,0,0-1.62-1.62H1.77A1.61,1.61,0,0,0,.15,45.76v.8H100Z"/><path class="cls-1" d="M.15,46.56v.81A1.61,1.61,0,0,0,1.77,49H98.38A1.61,1.61,0,0,0,100,47.37v-.81Z"/><path class="cls-3" d="M12.2,24.9H38.07a7.71,7.71,0,0,0,6-2.88H5.43a7.7,7.7,0,0,0,0,7.52H44.11a7.71,7.71,0,0,0-6-2.92H12.2a.86.86,0,0,1,0-1.72Z"/><path class="cls-5" d="M6.51,31H45a7.34,7.34,0,0,0-.92-1.46H5.45A7.88,7.88,0,0,0,6.51,31Z"/><path class="cls-5" d="M12.2,33.5H38.07a.86.86,0,1,1,0,1.72H7.9a3.43,3.43,0,0,0-3.31,2.53H45a7.74,7.74,0,0,0,.78-3.39A7.61,7.61,0,0,0,45,31H6.51A7.73,7.73,0,0,0,12.2,33.5Z"/><path class="cls-3" d="M7.9,42.1H38.07a7.72,7.72,0,0,0,6-2.89H4.51A3.43,3.43,0,0,0,7.9,42.1Z"/><path class="cls-5" d="M4.46,38.66a3.31,3.31,0,0,0,0,.55H44.09A7.69,7.69,0,0,0,45,37.75H4.59A3.39,3.39,0,0,0,4.46,38.66Z"/><path class="cls-3" d="M38.07,9.43H7.9A3.43,3.43,0,0,0,4.6,11.9H43.73A7.71,7.71,0,0,0,38.07,9.43Z"/><path class="cls-5" d="M45.8,17.16a7.6,7.6,0,0,0-1-3.79H4.5A3.44,3.44,0,0,0,7.9,16.3H38.07a.87.87,0,0,1,0,1.73H12.2a7.69,7.69,0,0,0-5.72,2.53H45A7.72,7.72,0,0,0,45.8,17.16Z"/><path class="cls-5" d="M45,20.56H6.48A7.51,7.51,0,0,0,5.43,22H44.08A8.26,8.26,0,0,0,45,20.56Z"/><path class="cls-5" d="M43.73,11.9H4.6a3.43,3.43,0,0,0-.14,1,4.21,4.21,0,0,0,0,.51H44.8A7.67,7.67,0,0,0,43.73,11.9Z"/></svg>